<svg width="558" height="596" viewBox="0 0 558 596" fill="none" xmlns="http://www.w3.org/2000/svg">
<g clip-path="url(#clip0_4548_2)">
<path d="M401.797 101.934C404.299 103.865 406.656 105.88 409 108C409.842 108.737 410.683 109.475 411.551 110.234C423.662 121.482 430.81 136.147 431.57 152.687C432.238 187.033 411.305 222.19 388.594 246.77C388.07 247.343 387.547 247.916 387.008 248.507C385.605 250.012 384.163 251.48 382.719 252.945C380.847 256.272 380.809 256.773 381.551 260.305C382.007 261.878 382.491 263.443 383 265C383.421 266.458 383.841 267.917 384.262 269.375C384.734 270.917 385.21 272.459 385.687 274C388.389 282.859 390.929 291.757 393.398 300.684C394.706 305.41 396.022 310.128 397.461 314.816C401.176 327.03 403.995 339.417 406.75 351.875C406.947 352.757 407.143 353.638 407.346 354.547C418.919 406.614 418.919 406.614 406.391 426.563C404.707 428.848 402.928 430.919 401 433C400.393 433.697 399.786 434.395 399.16 435.113C390.921 444.06 380.724 448.774 368.687 449.438C362.389 449.358 357.46 446.957 352 444C351.865 444.594 351.729 445.189 351.59 445.801C349.686 453.13 346.297 458.808 342 465C342.593 465.085 343.186 465.169 343.797 465.256C373.974 469.715 373.974 469.715 383.766 482.106C387.578 487.957 387.734 493.088 387 500C385.437 503.375 385.437 503.375 383 506C382.549 506.487 382.098 506.975 381.633 507.477C368.455 520.261 344.499 524.507 327 527C326.101 527.135 325.201 527.271 324.275 527.41C308.39 529.72 292.715 530.273 276.687 530.25C275.771 530.249 274.855 530.249 273.911 530.248C258.951 530.211 244.15 529.825 229.375 527.25C227.845 526.986 227.845 526.986 226.284 526.716C197.514 521.607 165.525 513.618 147 489C143 482.959 143 482.959 143 480C141.602 480.433 141.602 480.433 140.176 480.875C126.165 485.035 114.745 485.553 101.445 478.68C86.726 470.288 75.0029 459.021 70.2538 442.387C66.7872 426.249 68.7532 410.363 76.9921 396.074C84.3353 384.831 94.6072 375.93 108 373C108.99 373 109.98 373 111 373C111.147 372.415 111.294 371.83 111.445 371.227C119.952 338.667 134.878 310.534 158 286C158.687 285.237 159.374 284.474 160.082 283.688C167.722 275.552 176.777 269.288 185.73 262.689C197.668 253.806 208.625 243.649 219 233C218.175 233.485 217.35 233.969 216.5 234.469C193.074 248.117 168.154 261.316 140.125 256.375C126.573 252.627 117.111 243.506 110.051 231.785C106.87 226.169 104.827 220.181 103 214C102.698 213.016 102.698 213.016 102.391 212.012C100.251 200.993 101.906 189.413 108 180C109.425 177.981 110.684 176.264 112.582 174.68C114.484 172.427 114.308 171.16 114.187 168.246C114.164 167.308 114.141 166.371 114.117 165.404C114.04 163.454 113.962 161.503 113.883 159.553C113.529 145.114 119.187 133.065 129.062 122.676C162.091 92.5902 216.952 92.298 259 94.0001C264.735 94.3314 270.43 94.8422 276.129 95.5626C282.64 96.2985 286.95 96.4867 292.75 93.2501C327.839 74.8185 369.518 79.6178 401.797 101.934Z" fill="#F6F6F6"/>
<path d="M401.797 101.934C404.299 103.865 406.656 105.88 409 108C409.842 108.737 410.683 109.475 411.551 110.234C423.662 121.482 430.81 136.147 431.57 152.687C432.238 187.033 411.305 222.19 388.594 246.77C388.07 247.343 387.547 247.916 387.008 248.507C385.605 250.012 384.163 251.48 382.719 252.945C380.847 256.272 380.809 256.773 381.551 260.305C382.007 261.878 382.491 263.443 383 265C383.421 266.458 383.841 267.917 384.262 269.375C384.734 270.917 385.21 272.459 385.687 274C388.389 282.859 390.929 291.757 393.398 300.684C394.706 305.41 396.022 310.128 397.461 314.816C401.176 327.03 403.995 339.417 406.75 351.875C406.947 352.757 407.143 353.638 407.346 354.547C418.919 406.614 418.919 406.614 406.391 426.563C404.707 428.848 402.928 430.919 401 433C400.393 433.697 399.786 434.395 399.16 435.113C390.921 444.06 380.724 448.774 368.687 449.438C362.389 449.358 357.46 446.957 352 444C351.865 444.594 351.729 445.189 351.59 445.801C349.686 453.13 346.297 458.808 342 465C342.593 465.085 343.186 465.169 343.797 465.256C373.974 469.715 373.974 469.715 383.766 482.106C387.578 487.957 387.734 493.088 387 500C385.437 503.375 385.437 503.375 383 506C382.549 506.487 382.098 506.975 381.633 507.477C368.455 520.261 344.499 524.507 327 527C326.101 527.135 325.201 527.271 324.275 527.41C308.39 529.72 292.715 530.273 276.687 530.25C275.771 530.249 274.855 530.249 273.911 530.248C258.951 530.211 244.15 529.825 229.375 527.25C227.845 526.986 227.845 526.986 226.284 526.716C197.514 521.607 165.525 513.618 147 489C143 482.959 143 482.959 143 480C141.602 480.433 141.602 480.433 140.176 480.875C126.165 485.035 114.745 485.553 101.445 478.68C86.726 470.288 75.0029 459.021 70.2538 442.387C66.7872 426.249 68.7532 410.363 76.9921 396.074C84.3353 384.831 94.6072 375.93 108 373C108.99 373 109.98 373 111 373C111.147 372.415 111.294 371.83 111.445 371.227C119.952 338.667 134.878 310.534 158 286C158.687 285.237 159.374 284.474 160.082 283.688C167.722 275.552 176.777 269.288 185.73 262.689C197.668 253.806 208.625 243.649 219 233C218.175 233.485 217.35 233.969 216.5 234.469C193.074 248.117 168.154 261.316 140.125 256.375C126.573 252.627 117.111 243.506 110.051 231.785C106.87 226.169 104.827 220.181 103 214C102.698 213.016 102.698 213.016 102.391 212.012C100.251 200.993 101.906 189.413 108 180C109.425 177.981 110.684 176.264 112.582 174.68C114.484 172.427 114.308 171.16 114.187 168.246C114.164 167.308 114.141 166.371 114.117 165.404C114.04 163.454 113.962 161.503 113.883 159.553C113.529 145.114 119.187 133.065 129.062 122.676C162.091 92.5902 216.952 92.298 259 94.0001C264.735 94.3314 270.43 94.8422 276.129 95.5626C282.64 96.2985 286.95 96.4867 292.75 93.2501C327.839 74.8185 369.518 79.6178 401.797 101.934ZM297 109C296.015 109.485 295.03 109.969 294.016 110.469C279.073 118.242 265.652 128.857 254.058 141.015C249.522 145.716 246.555 147.17 240.059 147.606C238.853 147.698 237.647 147.791 236.404 147.886C234.441 148.035 234.441 148.035 232.437 148.188C207.208 150.321 181.739 155.043 158 164C157.258 164.278 156.516 164.556 155.751 164.843C142.904 169.773 130.086 176.471 122 188C121.569 188.612 121.139 189.225 120.695 189.856C116.828 196.324 117.136 203.448 118.508 210.676C121.402 221.37 127.293 230.574 136.062 237.375C145.513 242.603 157.493 242.155 167.887 239.938C194.291 231.987 219.271 215.748 239.242 196.965C247.625 189.23 247.625 189.23 251.824 188.527C254.312 188.813 254.312 188.813 258 190C259.962 197.847 257.533 202.933 254 210C253.698 210.609 253.396 211.218 253.085 211.846C247.431 223.062 240.244 232.565 232 242C231.244 242.868 231.244 242.868 230.473 243.753C225.021 249.961 219.36 255.723 213 261C212.116 261.772 211.231 262.544 210.32 263.34C203.773 269.034 196.983 274.288 190 279.438C177.833 288.457 167.172 297.848 158 310C156.836 311.481 156.836 311.481 155.648 312.992C143.097 329.372 130.721 351.25 128 372C129.114 372.124 130.227 372.248 131.375 372.375C146.316 374.292 160.884 379.18 171 391C176.674 398.927 179.372 405.967 179.25 415.688C179.237 416.89 179.237 416.89 179.223 418.117C178.864 436.554 171.838 452.933 158.937 466.188C156.219 469.235 156.219 469.235 156.062 473.375C162.261 487.441 176.443 495.358 190 501C202.958 505.984 216.336 508.765 230 511C231.027 511.17 231.027 511.17 232.076 511.343C246.462 513.678 260.771 514.209 275.312 514.188C276.569 514.186 276.569 514.186 277.851 514.185C327.717 515.063 327.717 515.063 371 495C371.001 492.479 371.001 492.479 370 490C363.466 484.619 354.089 483.378 346 482C344.469 481.725 344.469 481.725 342.906 481.445C335.996 480.658 329.026 480.676 322.076 480.57C320.941 480.539 319.806 480.508 318.637 480.477C317.602 480.457 316.568 480.437 315.503 480.417C314.264 480.21 314.264 480.21 313 480C310.962 476.944 310.162 474.814 310.223 471.121C311.964 466.369 317.801 464.332 322 462C330.848 455.874 336.512 445.621 338.695 435.166C339.494 429.496 339.462 423.675 339.41 417.958C339.469 410.734 339.469 410.734 342.305 406.813C345 405 345 405 348.687 405C352 406 352 406 354 409C354.488 411.219 354.918 413.45 355.312 415.688C356.797 422.975 358.657 428.772 365 433C372.14 433.874 378.327 431.451 384.207 427.527C390.346 422.562 395.354 415.825 397 408C397.949 397.275 397.209 386.47 395.375 375.891C395.112 374.352 395.112 374.352 394.844 372.781C392.903 361.83 390.283 351.062 387.529 340.291C386.688 337.004 385.864 333.713 385.041 330.422C379.831 309.713 374.047 289.242 366.857 269.129C364.814 263.214 363.145 258.267 364 252C365.477 249.445 365.477 249.445 367.625 247.125C368.443 246.194 369.262 245.264 370.105 244.305C370.565 243.788 371.024 243.27 371.497 242.737C393.901 216.831 416.955 184.686 415.16 149.101C414.478 140.133 410.438 133.959 405 127C404.062 125.751 404.062 125.751 403.105 124.477C395.239 115.224 383.844 109.936 373 105C372.081 104.577 371.162 104.154 370.215 103.719C345.651 93.1743 320.232 97.4489 297 109Z" fill="#030303"/>
<path d="M123.187 387.563C124.571 387.573 124.571 387.573 125.983 387.583C137.514 387.853 148.511 390.666 156.969 398.922C163.147 405.658 164.357 410.637 164.184 419.731C163.346 434.653 156.024 448.823 145.355 459.141C138.293 464.715 129.904 468.458 120.883 468.34C109.017 466.941 98.981 459.083 91.5038 450.184C84.9713 440.699 83.7562 429.193 84.9999 418C88.0185 406.55 94.8735 397.154 105 391C111.005 388.023 116.549 387.487 123.187 387.563Z" fill="#F5F5F5"/>
<path d="M236 109.812C237.066 109.811 237.066 109.811 238.153 109.809C246.48 109.811 254.721 110.047 263 111C258.88 115.183 254.616 119.193 250.313 123.187C248.975 124.431 247.638 125.674 246.301 126.918C245.715 127.462 245.129 128.006 244.525 128.567C243.33 129.69 242.16 130.84 241 132C238.326 132.491 235.716 132.871 233.02 133.184C231.812 133.335 231.812 133.335 230.58 133.49C227.992 133.814 225.403 134.127 222.813 134.437C211.085 135.859 199.553 137.483 188 140C186.627 140.286 186.627 140.286 185.226 140.577C167.852 144.232 150.702 149.463 135.047 157.969C133 159 133 159 131 159C130.454 150.442 132.874 143.547 138.301 136.898C153.228 120.221 176.178 114.945 197.54 112.309C199.81 112.024 202.072 111.704 204.336 111.375C214.87 109.954 225.388 109.816 236 109.812Z" fill="#F2F2F2"/>
<path d="M332.746 121.051C334.937 122.832 336.728 124.455 338 127C338.35 132.34 338.468 135.665 335 140C332.387 142.806 331.02 142.998 327.125 143.437C322.834 143.269 320.28 141.811 317 139C314.41 135.585 314.569 132.167 315 128C316.728 124.608 318.027 122.578 321.313 120.625C329.049 118.826 329.049 118.826 332.746 121.051Z" fill="#060606"/>
</g>
<defs>
<clipPath id="clip0_4548_2">
<rect width="558" height="596" fill="white"/>
</clipPath>
</defs>
</svg>
