<svg width="750" height="750" viewBox="0 0 750 750" fill="none" xmlns="http://www.w3.org/2000/svg">
<path d="M316.739 13.2268C318 13.7652 319.254 14.3223 320.5 14.8947C321.18 15.2003 321.86 15.5058 322.561 15.8205C352.525 29.7562 352.525 29.7562 357.188 39.0823C357.027 40.7911 356.859 42.4994 356.688 44.2072C356.607 48.0248 356.775 49.5659 359.188 52.5862C361.447 54.5594 363.722 56.3751 366.188 58.0822C367.673 57.5872 367.673 57.5872 369.188 57.0822C372.458 56.6421 375.001 56.3312 377.881 58.154C382.375 62.0418 385.756 66.178 389 71.1447C389.508 71.9134 390.016 72.682 390.539 73.4739C397.376 84.1221 403.498 95.9413 407.188 108.082C408.576 104.794 409.614 101.629 410.379 98.1448C425.959 29.2347 425.959 29.2347 441.188 19.0823C446.18 18.62 449.188 18.9965 453.188 22.0822C455.563 25.6445 455.639 26.8792 455.188 31.0823C454.065 33.6528 452.907 36.0119 451.563 38.4573C439.756 61.0965 434.141 86.4093 428.188 111.082C428.71 110.488 429.232 109.894 429.77 109.281C459.017 76.3464 496.763 56.2709 541.25 53.0197C541.957 52.9576 542.664 52.8954 543.392 52.8313C548.89 52.5679 551.78 54.0713 556.188 57.0822C560.368 61.4767 560.59 65.0545 560.502 70.8257C559.963 76.4155 558.336 81.6432 556.617 86.9726C555.998 88.9032 555.411 90.8418 554.826 92.7834C551.016 104.895 551.016 104.895 546.188 109.082C543.731 109.887 543.731 109.887 541.375 109.957C540.585 109.996 539.795 110.035 538.981 110.074C538.093 110.078 538.093 110.078 537.188 110.082C536.654 111.494 536.136 112.912 535.625 114.332C535.19 115.516 535.19 115.516 534.746 116.723C534.127 119.34 534.245 120.59 535.188 123.082C535.848 124.072 536.508 125.062 537.188 126.082C537.94 132.857 536.395 136.481 532.625 142.02C532.167 142.72 531.709 143.42 531.237 144.142C527.804 149.33 524.158 154.292 520.188 159.082C519.409 160.055 518.631 161.029 517.828 162.031C511.467 169.943 511.467 169.943 509.188 171.082C510.146 171.071 511.103 171.059 512.09 171.047C556.382 170.664 594.917 184.33 628.188 214.082C629.161 214.923 630.134 215.763 631.137 216.629C639.814 224.204 639.814 224.204 640.524 229.668C640.585 234.022 640.497 237.338 638.813 241.395C631.579 248.8 618.806 255.516 608.446 256.403C604.177 255.983 602.856 254.316 600.188 251.082C599.428 251.299 598.669 251.515 597.887 251.738C596.893 252.017 595.899 252.295 594.875 252.582C593.396 253 593.396 253 591.887 253.426C589.188 254.082 589.188 254.082 586.188 254.082C586.291 255.134 586.394 256.186 586.5 257.27C586.188 261.082 586.188 261.082 584.063 263.895C578.506 268.123 571.913 268.833 565.188 270.082C565.866 270.725 566.544 271.369 567.242 272.031C593.855 297.87 610.704 331.772 611.472 369.076C612.011 430.504 576.534 491.866 541.188 540.082C540.462 541.09 539.736 542.098 538.989 543.137C528.551 557.615 517.768 571.844 506.162 585.407C503.374 588.666 500.669 591.975 498 595.332C492.161 602.501 485.724 609.114 479.349 615.803C477.144 618.128 474.957 620.468 472.774 622.813C472.058 623.58 471.342 624.348 470.604 625.138C469.235 626.607 467.868 628.077 466.504 629.55C457.245 639.448 457.245 639.448 452.125 639.957C448.329 640.078 447.293 639.867 444.188 638.082C441.729 640.373 439.271 642.665 436.813 644.957C435.765 645.934 435.765 645.934 434.696 646.93C434.025 647.555 433.355 648.18 432.664 648.824C432.046 649.401 431.428 649.977 430.792 650.57C429.571 651.721 428.374 652.896 427.188 654.082C427.518 654.742 427.848 655.402 428.188 656.082C428.772 663.206 428.772 663.206 426.555 666.531C423.918 669.373 421.075 671.744 418 674.082C417.389 674.553 416.778 675.024 416.149 675.509C414.838 676.518 413.525 677.525 412.21 678.529C410.204 680.07 408.214 681.63 406.227 683.196C369.843 711.694 322.547 742.296 274.188 738.082C258.92 735.498 245.575 726.021 234.188 716.082C233.532 715.547 232.875 715.012 232.199 714.461C228.391 711.345 225.169 707.943 221.989 704.192C220.804 702.804 219.593 701.438 218.356 700.098C202.354 682.76 190.172 661.842 179.188 641.082C178.762 640.281 178.336 639.479 177.897 638.654C169.251 622.252 162.13 605.255 155.188 588.082C154.598 586.63 154.598 586.63 153.996 585.149C132.295 531.327 119.495 474.027 112.438 416.582C112.331 415.711 112.223 414.84 112.113 413.943C110.025 396.829 108.981 379.948 109 362.707C109.001 361.78 109.001 360.853 109.001 359.898C109.02 345.549 109.365 331.333 111.188 317.082C111.295 316.238 111.402 315.393 111.512 314.523C112.241 309.01 113.13 303.542 114.188 298.082C114.335 297.323 114.482 296.564 114.633 295.782C115.08 293.562 115.562 291.353 116.063 289.145C116.492 287.244 116.492 287.244 116.93 285.305C118.397 281.545 119.758 280.155 123.188 278.082C127 277.832 127 277.832 130.188 278.082C130.274 277.256 130.36 276.43 130.449 275.578C131.345 271.338 133.009 267.965 135 264.145C135.344 263.467 135.687 262.79 136.041 262.092C137.754 258.741 139.543 255.483 141.496 252.266C143.575 249.21 143.575 249.21 142.438 246.082C142.025 245.092 141.613 244.102 141.188 243.082C140.5 239.832 140.5 239.832 141.188 236.082C143.832 232.393 146.982 229.283 150.188 226.082C151.29 224.874 151.29 224.874 152.414 223.641C166.796 208.246 186.597 197.13 206.328 190.117C209.682 188.903 212.92 187.509 216.188 186.082C215.153 185.083 215.153 185.083 214.098 184.063C175.468 146.175 175.468 146.175 174.875 127.832C174.943 123.164 176.04 120.644 179.188 117.082C187.094 110.165 198.031 109.757 208.059 109.586C211.876 110.191 213.516 111.323 216.188 114.082C216.518 115.402 216.848 116.722 217.188 118.082C223.128 118.082 229.068 118.082 235.188 118.082C235.848 116.432 236.508 114.782 237.188 113.082C238.625 110.77 238.625 110.77 241.188 109.082C261.337 105.326 286.976 117.884 304.188 127.082C304.848 127.412 305.508 127.742 306.188 128.082C305.801 127.087 305.414 126.092 305.016 125.067C302.041 117.181 299.588 109.355 297.938 101.082C297.787 100.338 297.637 99.594 297.482 98.8274C294.814 84.6632 293.878 70.7022 293.982 56.3142C294 53.6886 294.002 51.0634 294.002 48.4377C294.053 22.9302 294.053 22.9302 299.188 17.0823C304.986 11.9747 309.121 10.7713 316.739 13.2268Z" fill="#DB3C3C"/>
<path d="M316.738 13.2268C318 13.7652 319.254 14.3223 320.5 14.8947C321.18 15.2003 321.86 15.5058 322.561 15.8205C352.524 29.7562 352.524 29.7562 357.188 39.0823C357.026 40.7911 356.859 42.4994 356.688 44.2072C356.607 48.0248 356.775 49.5659 359.188 52.5862C361.447 54.5594 363.722 56.3751 366.188 58.0822C367.178 57.7522 368.168 57.4222 369.188 57.0822C372.457 56.6421 375.001 56.3312 377.881 58.154C382.375 62.0418 385.756 66.178 389 71.1447C389.508 71.9134 390.015 72.682 390.539 73.4739C397.375 84.1221 403.498 95.9413 407.188 108.082C408.576 104.794 409.614 101.629 410.379 98.1448C425.959 29.2347 425.959 29.2347 441.188 19.0823C446.18 18.62 449.187 18.9965 453.188 22.0822C455.562 25.6445 455.639 26.8792 455.188 31.0823C454.065 33.6528 452.907 36.0119 451.562 38.4573C439.756 61.0965 434.141 86.4093 428.188 111.082C428.71 110.488 429.232 109.894 429.77 109.281C459.017 76.3464 496.763 56.2709 541.25 53.0197C541.957 52.9576 542.664 52.8954 543.392 52.8313C548.89 52.5679 551.78 54.0713 556.188 57.0822C560.368 61.4767 560.59 65.0545 560.502 70.8257C559.962 76.4155 558.336 81.6432 556.617 86.9726C555.997 88.9032 555.41 90.8418 554.826 92.7834C551.016 104.895 551.016 104.895 546.188 109.082C543.73 109.887 543.73 109.887 541.375 109.957C540.585 109.996 539.795 110.035 538.98 110.074C538.093 110.078 538.093 110.078 537.188 110.082C536.654 111.494 536.136 112.912 535.625 114.332C535.19 115.516 535.19 115.516 534.746 116.723C534.126 119.34 534.245 120.59 535.188 123.082C535.848 124.072 536.507 125.062 537.188 126.082C537.94 132.857 536.395 136.481 532.625 142.02C532.167 142.72 531.709 143.42 531.237 144.142C527.803 149.33 524.158 154.292 520.188 159.082C519.409 160.055 518.63 161.029 517.828 162.031C511.467 169.943 511.467 169.943 509.188 171.082C510.145 171.071 511.103 171.059 512.09 171.047C556.382 170.664 594.916 184.33 628.188 214.082C629.161 214.923 630.134 215.763 631.137 216.629C639.814 224.204 639.814 224.204 640.523 229.668C640.584 234.022 640.496 237.338 638.812 241.395C631.579 248.8 618.806 255.516 608.445 256.403C604.177 255.983 602.855 254.316 600.188 251.082C599.428 251.299 598.669 251.515 597.887 251.738C596.893 252.017 595.899 252.295 594.875 252.582C593.396 253 593.396 253 591.887 253.426C589.188 254.082 589.188 254.082 586.188 254.082C586.291 255.134 586.394 256.186 586.5 257.27C586.188 261.082 586.188 261.082 584.062 263.895C578.506 268.123 571.913 268.833 565.188 270.082C565.866 270.725 566.544 271.369 567.242 272.031C593.855 297.87 610.703 331.772 611.471 369.076C612.01 430.504 576.534 491.866 541.188 540.082C540.462 541.09 539.736 542.098 538.988 543.137C528.55 557.615 517.767 571.844 506.161 585.407C503.373 588.666 500.669 591.975 498 595.332C492.161 602.501 485.724 609.114 479.349 615.803C477.144 618.128 474.956 620.468 472.773 622.813C472.057 623.58 471.341 624.348 470.604 625.138C469.235 626.607 467.868 628.077 466.504 629.55C457.264 639.427 457.264 639.427 452.188 640.082C448.188 640.082 448.188 640.082 445.25 638.27C442.012 634.836 441.594 632.17 441.652 627.552C442.717 622.641 446.638 619.762 450.25 616.52C451.764 615.104 453.276 613.686 454.785 612.266C455.53 611.572 456.275 610.878 457.043 610.163C459.703 607.582 462.11 604.84 464.514 602.022C467.259 598.84 470.172 595.819 473.062 592.77C477.912 587.613 482.551 582.365 486.973 576.832C489.53 573.657 492.166 570.558 494.812 567.457C499.08 562.435 503.212 557.338 507.188 552.082C507.849 551.217 508.51 550.352 509.191 549.461C522.454 531.976 534.821 513.853 546.188 495.082C546.849 494.028 547.51 492.973 548.191 491.887C573.85 450.684 599.235 397.293 588.783 347.532C582.747 322.691 568.28 301.711 550.188 284.082C549.664 283.525 549.141 282.968 548.602 282.395C542.375 275.879 535.36 270.5 528.188 265.082C527.639 264.662 527.09 264.241 526.524 263.808C516.041 255.819 504.728 249.41 493.188 243.082C492.338 242.611 491.488 242.141 490.612 241.655C452.304 220.524 409.983 205.798 366.688 199.457C365.931 199.346 365.174 199.235 364.395 199.121C361.662 198.742 358.926 198.41 356.188 198.082C355.549 198 354.911 197.918 354.254 197.833C339.615 195.975 325.051 195.742 310.307 195.767C306.391 195.77 302.476 195.746 298.561 195.721C283.196 195.682 268.346 196.548 253.188 199.082C251.964 199.281 250.74 199.48 249.48 199.685C246.638 200.18 243.821 200.73 241 201.332C240.014 201.542 239.029 201.752 238.013 201.968C209.165 208.398 178.358 221.921 159.562 245.582C157.223 248.347 155.665 249.645 152.062 250.27C147.996 250.073 146.258 249.701 143.188 247.082C141.446 244.76 141.127 242.809 140.5 239.957C141.602 233.744 145.831 230.432 150.188 226.082C150.922 225.277 151.657 224.471 152.414 223.641C166.796 208.246 186.597 197.13 206.328 190.117C209.681 188.903 212.919 187.509 216.188 186.082C215.153 185.083 215.153 185.083 214.098 184.063C175.468 146.175 175.468 146.175 174.875 127.832C174.942 123.164 176.04 120.644 179.188 117.082C187.093 110.165 198.03 109.757 208.059 109.586C211.876 110.191 213.516 111.323 216.188 114.082C216.518 115.402 216.847 116.722 217.188 118.082C223.128 118.082 229.068 118.082 235.188 118.082C235.848 116.432 236.507 114.782 237.188 113.082C238.625 110.77 238.625 110.77 241.188 109.082C261.337 105.326 286.976 117.884 304.188 127.082C304.848 127.412 305.507 127.742 306.188 128.082C305.801 127.087 305.414 126.092 305.016 125.067C302.041 117.181 299.588 109.355 297.938 101.082C297.787 100.338 297.637 99.594 297.481 98.8274C294.814 84.6632 293.877 70.7022 293.982 56.3142C294 53.6886 294.002 51.0634 294.002 48.4377C294.053 22.9302 294.053 22.9302 299.188 17.0823C304.985 11.9747 309.121 10.7713 316.738 13.2268Z" fill="#030302"/>
<path d="M301.512 194.767C305.388 194.77 309.264 194.746 313.141 194.721C379.209 194.552 443.768 213.228 501 246.082C502.165 246.749 502.165 246.749 503.353 247.43C507.105 249.642 510.274 251.779 513.188 255.082C512.11 254.645 512.11 254.645 511.012 254.199C508.357 253.149 505.688 252.168 503 251.207C499.518 249.947 496.059 248.654 492.625 247.27C472.102 239.002 451.859 231.747 430.188 227.082C429.131 226.846 428.074 226.609 426.985 226.366C415.74 223.962 404.427 222.603 393 221.395C391.964 221.285 390.928 221.174 389.86 221.061C354.779 217.414 317.811 216.384 283.188 224.082C282.063 224.331 280.939 224.58 279.781 224.836C277.63 225.325 275.481 225.826 273.336 226.34C271.202 226.843 269.061 227.316 266.914 227.762C260.102 229.202 253.992 231.211 247.648 234.094C245.188 235.082 245.188 235.082 242.188 235.082C242.292 236.26 242.292 236.26 242.398 237.461C242.897 247.14 242.897 247.14 240.25 251.02C236.338 254.867 231.07 255.761 225.925 257.115C211.417 261.032 198.695 269.948 190.77 282.836C186.081 291.023 182.505 299.365 181.75 308.832C181.352 313.162 180.113 315.762 177.188 319.082C172.78 322.021 169.428 322.397 164.188 322.082C164.139 322.723 164.09 323.364 164.039 324.024C163.583 329.294 162.828 334.052 161.188 339.082C162.404 339.02 163.621 338.959 164.875 338.895C170.154 338.913 172.747 340.681 176.5 344.332C178.681 347.887 178.701 349.972 178.188 354.082C176.278 358.644 173.6 360.916 169.188 363.082C165.824 363.399 162.554 363.322 159.188 363.082C158.373 369.532 158.016 375.838 157.984 382.336C157.977 383.302 157.97 384.268 157.963 385.263C157.946 388.39 157.939 391.518 157.938 394.645C157.937 395.718 157.936 396.791 157.935 397.897C157.97 433.034 162.434 467.467 169.721 501.824C170.19 504.094 170.622 506.369 171.043 508.649C173.973 524.32 178.088 539.685 182.188 555.082C182.454 556.104 182.721 557.126 182.996 558.179C184.262 562.965 185.679 567.578 187.482 572.187C188.695 575.446 189.571 578.797 190.5 582.145C192.452 588.976 194.853 595.485 197.582 602.051C199.505 606.763 201.111 611.579 202.75 616.395C204.816 622.424 206.978 628.171 210.004 633.797C211.914 637.484 213.419 641.333 214.984 645.176C216.392 648.577 217.92 651.913 219.488 655.242C220.188 657.082 220.188 657.082 220.188 660.082C220.848 660.082 221.507 660.082 222.188 660.082C222.551 660.821 222.915 661.56 223.289 662.321C229.168 674.291 229.168 674.291 235.926 685.774C236.342 686.536 236.759 687.297 237.188 688.082C236.857 688.742 236.528 689.402 236.188 690.082C231.053 685.226 226.665 680.098 222.5 674.395C221.898 673.574 221.297 672.753 220.677 671.907C214.761 663.702 209.544 655.14 204.509 646.374C203.325 644.32 202.117 642.283 200.898 640.25C187.937 618.335 178.608 594.405 169.559 570.678C168.392 567.617 167.212 564.562 166.027 561.508C162.071 551.184 158.916 540.715 156.007 530.053C155.133 526.885 154.227 523.728 153.316 520.571C138.748 469.616 129.067 417.345 128.837 364.26C128.824 361.547 128.797 358.834 128.755 356.121C128.455 334.758 129.941 314.208 135.362 293.442C136.474 288.918 136.228 285.865 133.875 281.832C132.097 279.988 130.542 279.057 128.188 278.082C128.848 278.082 129.507 278.082 130.188 278.082C130.319 276.841 130.319 276.841 130.453 275.575C131.339 271.363 132.967 268.005 134.938 264.207C135.296 263.503 135.654 262.8 136.023 262.075C138.51 257.245 141.172 252.605 144.188 248.082C144.779 248.189 145.371 248.296 145.98 248.407C146.771 248.526 147.561 248.646 148.375 248.77C149.541 248.961 149.541 248.961 150.73 249.157C154.016 249.057 155.556 248.021 158.188 246.082C159.551 244.629 160.861 243.124 162.125 241.582C186.428 213.934 224.048 202.5 259.188 197.082C260.943 196.801 260.943 196.801 262.735 196.514C275.624 194.709 288.516 194.745 301.512 194.767Z" fill="#FC5555"/>
<path d="M130.098 278.41C133.405 279.473 134.58 281.067 136.188 284.082C137.526 289.16 136.723 293.234 135.438 298.207C130.654 316.871 129.698 335.218 129.797 354.432C129.817 358.416 129.797 362.399 129.778 366.383C129.756 390.723 131.919 414.71 136 438.707C136.128 439.474 136.255 440.24 136.387 441.03C141.975 474.583 149.862 507.759 160.258 540.147C161.229 543.212 162.151 546.289 163.074 549.367C165.356 556.794 168.014 564.065 170.75 571.332C171.009 572.022 171.268 572.713 171.535 573.424C178.43 591.743 186.116 609.736 195.163 627.103C196.275 629.251 197.36 631.412 198.446 633.574C215.229 666.658 237.384 699.031 271.188 716.082C295.737 723.553 325.363 709.664 346.437 698.434C369.307 685.922 389.96 670.458 409.981 653.86C413.416 651.093 415.218 649.736 419.625 650.145C422.941 650.62 424.062 650.981 426.75 653.145C428.556 656.834 429.225 660.055 428.188 664.082C425.413 668.194 421.911 671.108 418 674.082C417.389 674.553 416.778 675.024 416.149 675.509C414.838 676.518 413.525 677.525 412.21 678.529C410.204 680.07 408.214 681.63 406.227 683.195C369.843 711.694 322.547 742.296 274.188 738.082C258.92 735.497 245.575 726.021 234.188 716.082C233.532 715.547 232.875 715.012 232.199 714.461C228.391 711.345 225.169 707.943 221.989 704.192C220.804 702.804 219.593 701.438 218.356 700.098C202.354 682.76 190.172 661.842 179.188 641.082C178.762 640.281 178.336 639.479 177.897 638.654C169.251 622.252 162.13 605.255 155.188 588.082C154.795 587.114 154.401 586.146 153.996 585.149C132.295 531.327 119.495 474.027 112.438 416.582C112.331 415.711 112.223 414.84 112.113 413.943C110.025 396.829 108.981 379.948 109 362.707C109.001 361.78 109.001 360.853 109.001 359.898C109.02 345.549 109.365 331.333 111.188 317.082C111.295 316.238 111.402 315.393 111.512 314.523C112.241 309.01 113.13 303.542 114.188 298.082C114.335 297.323 114.482 296.564 114.633 295.782C115.08 293.562 115.562 291.353 116.063 289.145C116.492 287.244 116.492 287.244 116.93 285.305C119.528 278.649 123.523 277.316 130.098 278.41Z" fill="#050203"/>
<path d="M314.188 35.0823C318.255 35.6707 321.11 36.9762 324.625 39.0823C325.669 39.701 326.714 40.3198 327.789 40.9573C330.19 42.4296 332.52 43.9801 334.836 45.5823C335.447 45.9974 336.057 46.4124 336.686 46.8401C337.87 47.651 339.044 48.4786 340.203 49.3245C343.392 51.5002 345.049 52.0879 348.953 51.9299C352.1 51.1054 353.818 50.2627 356.188 48.0823C356.91 48.9898 357.632 49.8973 358.375 50.8323C360.714 53.6525 363.238 55.8913 366.188 58.0823C365.858 58.7629 365.528 59.4435 365.188 60.1448C363.963 63.7411 363.79 66.299 364.188 70.0823C365.431 72.3198 366.632 74.0842 368.188 76.0823C373.109 82.827 377.335 89.6771 381.188 97.0823C381.608 97.8248 382.028 98.5673 382.461 99.3323C392.987 118.641 395.431 140.477 395.5 162.082C395.506 163.401 395.512 164.721 395.517 166.08C395.438 176.391 395.438 176.391 393.188 180.082C369.278 175.09 348.041 161.56 334.423 141.083C320.587 118.673 312.978 90.2841 313.055 63.969C313.054 63.2328 313.053 62.4965 313.052 61.738C313.051 60.1977 313.053 58.6575 313.057 57.1172C313.063 54.7585 313.057 52.4 313.051 50.0413C313.052 48.538 313.053 47.0347 313.055 45.5315C313.053 44.8284 313.051 44.1252 313.049 43.4008C313.064 40.3489 313.215 38.0021 314.188 35.0823Z" fill="#5AA26E"/>
<path d="M539.188 73.0823C538.001 80.607 535.755 87.4532 533.113 94.5667C532.136 98.2776 532.195 100.411 533.188 104.082C535.037 107.253 536.809 108.684 540.188 110.082C539.197 110.082 538.207 110.082 537.188 110.082C536.897 111.005 536.897 111.005 536.602 111.946C536.341 112.754 536.081 113.562 535.812 114.395C535.43 115.596 535.43 115.596 535.039 116.821C534.188 119.082 534.188 119.082 532.188 122.082C531.857 121.752 531.528 121.422 531.188 121.082C527.951 120.672 525.253 120.963 522.188 122.082C519.239 125.037 517.271 128.484 515.188 132.082C509.695 141.259 503.335 149.168 496.188 157.082C495.535 157.808 494.883 158.534 494.211 159.281C480.144 174.115 458.048 184.44 437.606 185.175C434.695 185.216 431.786 185.219 428.875 185.207C427.874 185.211 426.873 185.215 425.842 185.219C424.41 185.217 424.41 185.217 422.949 185.215C422.083 185.214 421.216 185.213 420.323 185.212C418.188 185.082 418.188 185.082 416.188 184.082C416.565 176.85 418.017 170.735 420.688 164.02C421.223 162.656 421.223 162.656 421.769 161.265C435.725 126.535 460.702 99.3895 495.035 83.989C508.261 78.417 524.737 73.0823 539.188 73.0823Z" fill="#5AA26E"/>
<path d="M555.188 195.082C555.866 195.248 556.545 195.414 557.244 195.585C580.115 201.217 599.471 215.114 617.188 230.082C616.857 231.072 616.528 232.062 616.188 233.082C613.242 234.464 610.23 235.509 607.168 236.606C603.749 238.3 602.218 239.874 600.188 243.082C599.853 246.792 599.853 246.792 600.188 250.082C598.419 250.755 596.648 251.42 594.875 252.082C593.889 252.454 592.903 252.825 591.887 253.207C589.188 254.082 589.188 254.082 586.188 254.082C584.809 252.453 583.475 250.785 582.188 249.082C577.155 246.566 570.928 248.388 565.688 249.52C545.945 253.742 545.945 253.742 540.195 250.281C538.768 249.038 538.768 249.038 537.312 247.77C519.012 232.632 496.559 221.796 475.07 211.958C470.388 209.779 465.79 207.424 461.188 205.082C481.08 185.19 531.079 188.648 555.188 195.082Z" fill="#5AA26E"/>
<path d="M216.188 116.082C216.518 116.742 216.847 117.402 217.188 118.082C223.128 118.082 229.068 118.082 235.188 118.082C235.518 117.422 235.847 116.762 236.188 116.082C236.297 116.709 236.407 117.335 236.52 117.981C236.678 118.798 236.837 119.615 237 120.457C237.151 121.269 237.302 122.081 237.457 122.918C238.063 125.44 238.063 125.44 241.188 127.082C243.123 127.636 243.123 127.636 245.258 127.977C246.063 128.125 246.868 128.273 247.698 128.425C248.561 128.58 249.424 128.735 250.312 128.895C283.899 135.345 308.54 150.668 332.188 175.082C329.363 176.024 327.768 176.187 324.857 176.132C323.539 176.113 323.539 176.113 322.194 176.093C321.239 176.076 320.285 176.058 319.301 176.039C317.241 176.014 315.181 175.99 313.121 175.967C312.039 175.954 310.958 175.942 309.843 175.929C288 175.706 267.035 176.709 245.509 180.562C239.807 181.455 239.807 181.455 236.734 179.606C236.141 178.897 235.548 178.188 234.938 177.457C234.281 176.711 233.625 175.965 232.949 175.196C232.368 174.498 231.786 173.801 231.188 173.082C230.383 172.278 229.579 171.474 228.75 170.645C227.482 169.376 227.482 169.376 226.188 168.082C225.531 167.461 224.875 166.84 224.199 166.199C218.608 160.811 213.919 155.074 209.399 148.765C208.081 146.935 206.741 145.122 205.398 143.309C204.473 142.046 203.549 140.783 202.625 139.52C202.183 138.924 201.741 138.328 201.285 137.714C198.188 133.425 198.188 133.425 198.188 130.082C199.163 129.901 200.139 129.719 201.145 129.531C203.053 129.154 203.053 129.154 205 128.77C206.897 128.404 206.897 128.404 208.832 128.031C212.707 126.966 212.707 126.966 215.188 124.082C215.758 122.041 215.758 122.041 215.875 119.895C215.978 118.637 216.081 117.379 216.188 116.082Z" fill="#5AA26E"/>
<path d="M236.375 232.77C240.378 236.061 241.896 238.332 242.75 243.457C242.119 247.526 241.39 249.493 238.598 252.469C234.733 255.056 230.37 255.947 225.925 257.114C211.417 261.038 198.697 269.945 190.77 282.836C186.082 291.023 182.505 299.365 181.75 308.832C181.352 313.162 180.113 315.762 177.188 319.082C173.137 321.724 170.004 322.785 165.188 322.082C161.207 319.939 158.824 318.302 157.188 314.082C154.81 296.219 163.953 277.212 174.559 263.336C185.209 249.929 217.063 222.546 236.375 232.77Z" fill="#FDFAFA"/>
<path d="M539.188 73.0823C538.796 75.4579 538.346 77.7961 537.812 80.1448C537.128 83.0641 537.128 83.0641 536.938 86.0198C536.306 89.6501 535.704 91.3433 533.188 94.0823C527.173 96.6382 520.479 97.3848 514.082 98.511C509.794 99.3573 505.696 100.612 501.562 102.02C500.831 102.269 500.099 102.518 499.344 102.774C493.901 104.696 488.758 107.053 483.668 109.785C481.222 111.064 478.749 112.059 476.188 113.082C474.944 113.765 473.713 114.471 472.5 115.207C469.188 117.082 469.188 117.082 467.188 117.082C467.188 117.742 467.188 118.402 467.188 119.082C461.776 123.082 461.776 123.082 459.188 123.082C459.188 123.742 459.188 124.402 459.188 125.082C457.474 126.668 455.691 128.178 453.875 129.645C452.889 130.45 451.903 131.256 450.887 132.086C448.188 134.082 448.188 134.082 445.188 135.082C444.492 136.401 443.829 137.736 443.188 139.082C441.637 140.723 441.637 140.723 439.875 142.332C436.632 145.446 434.409 148.66 432.23 152.578C431.886 153.075 431.542 153.571 431.188 154.082C430.527 154.082 429.868 154.082 429.188 154.082C428.097 156.73 427.104 159.348 426.25 162.082C425.193 165.066 424.012 167.498 422.188 170.082C421.527 170.082 420.868 170.082 420.188 170.082C419.692 171.072 419.692 171.072 419.188 172.082C423.648 144.326 445.086 116.36 467.188 100.082C487.491 85.8381 513.805 73.0823 539.188 73.0823Z" fill="#6EB97F"/>
<path d="M555.188 195.082C555.866 195.248 556.545 195.414 557.244 195.585C580.115 201.217 599.471 215.114 617.188 230.082C616.857 231.072 616.528 232.062 616.188 233.082C613.641 234.328 613.641 234.328 610.438 235.52C606.011 237.171 602.757 238.969 599.188 242.082C598.569 241.278 597.95 240.473 597.312 239.645C595.446 237.044 595.446 237.044 593.188 236.082C593.188 235.422 593.188 234.762 593.188 234.082C592.569 233.773 591.95 233.463 591.312 233.145C589.938 232.457 588.562 231.77 587.188 231.082C587.188 230.422 587.188 229.762 587.188 229.082C586.527 228.876 585.868 228.67 585.188 228.457C581.741 226.878 579.106 224.795 576.125 222.481C573.93 220.896 571.77 219.889 569.188 219.082C569.188 218.422 569.188 217.762 569.188 217.082C568.485 216.984 567.782 216.886 567.059 216.785C563.7 215.963 561.24 214.567 558.25 212.832C536.3 200.77 511.714 199.037 487.188 198.082C487.518 197.092 487.847 196.102 488.188 195.082C509.17 187.587 534.02 189.433 555.188 195.082Z" fill="#6FB97F"/>
<path d="M314.188 35.0823C318.578 35.6676 321.661 37.3127 325.438 39.5823C327.023 40.5259 327.023 40.5259 328.641 41.4885C331.188 43.0823 331.188 43.0823 332.188 44.0823C332.252 46.8056 332.254 49.5043 332.215 52.2268C332.2 53.9433 332.186 55.6597 332.172 57.3762C332.164 58.2778 332.156 59.1794 332.147 60.1083C331.867 96.0086 336.086 128.894 355.188 160.082C355.518 160.742 355.848 161.402 356.188 162.082C343.14 157.756 334.619 142.149 328.661 130.46C318.795 110.248 312.989 86.4989 313.055 63.969C313.054 63.2328 313.053 62.4965 313.052 61.738C313.051 60.1977 313.053 58.6575 313.057 57.1172C313.063 54.7585 313.057 52.4 313.051 50.0413C313.052 48.538 313.053 47.0347 313.055 45.5315C313.053 44.8284 313.051 44.1252 313.049 43.4008C313.064 40.3489 313.215 38.0021 314.188 35.0823Z" fill="#6EB77F"/>
<path d="M216.188 116.082C216.518 116.742 216.847 117.402 217.188 118.082C223.128 118.082 229.068 118.082 235.188 118.082C235.518 117.422 235.847 116.762 236.188 116.082C236.297 116.709 236.407 117.335 236.52 117.981C236.678 118.798 236.837 119.615 237 120.457C237.151 121.269 237.302 122.081 237.457 122.918C238.063 125.44 238.063 125.44 241.188 127.082C243.123 127.636 243.123 127.636 245.258 127.977C246.063 128.125 246.868 128.273 247.698 128.425C248.561 128.58 249.424 128.735 250.312 128.895C283.899 135.345 308.54 150.668 332.188 175.082C331.197 175.412 330.207 175.742 329.188 176.082C327.145 174.719 327.145 174.719 325 172.77C324.285 172.134 323.569 171.499 322.832 170.844C321.188 169.082 321.188 169.082 321.188 167.082C320.466 166.814 319.744 166.546 319 166.27C315.337 164.723 312.185 163.191 309.5 160.207C305.915 156.913 301.574 155.125 297.188 153.082C297.188 152.422 297.188 151.762 297.188 151.082C294.878 150.752 292.568 150.422 290.188 150.082C290.188 149.422 290.188 148.762 290.188 148.082C289.642 147.901 289.097 147.719 288.535 147.531C287.781 147.28 287.027 147.029 286.25 146.77C285.416 146.494 284.582 146.218 283.723 145.934C282.204 145.424 280.69 144.902 279.184 144.356C274.079 142.538 268.891 141.213 263.625 139.957C262.917 139.787 262.208 139.616 261.479 139.44C260.435 139.197 260.435 139.197 259.371 138.949C258.758 138.806 258.145 138.663 257.513 138.515C250.413 137.193 243.65 136.992 236.449 137.125C234.393 137.148 232.336 137.169 230.279 137.19C227.062 137.227 223.845 137.27 220.628 137.329C217.506 137.383 214.384 137.413 211.262 137.438C210.296 137.462 209.33 137.485 208.336 137.51C207.441 137.513 206.546 137.517 205.624 137.521C204.837 137.532 204.051 137.544 203.241 137.557C201.188 137.082 201.188 137.082 199.41 135.242C198.188 133.082 198.188 133.082 198.188 130.082C199.163 129.901 200.139 129.719 201.145 129.531C203.053 129.154 203.053 129.154 205 128.77C206.897 128.404 206.897 128.404 208.832 128.031C212.707 126.966 212.707 126.966 215.188 124.082C215.758 122.041 215.758 122.041 215.875 119.895C215.978 118.637 216.081 117.379 216.188 116.082Z" fill="#6FB57F"/>
<path d="M334.188 247.082C338.496 251.54 338.48 256.338 338.395 262.231C337.959 268.225 336.291 272.385 331.938 276.582C329.205 278.695 327.991 279.118 324.438 279.77C321.188 279.082 321.188 279.082 319.313 276.832C316.379 269.662 315.955 262.322 318.938 255.082C320.454 251.714 321.754 250.467 325.188 249.082C325.188 248.422 325.188 247.762 325.188 247.082C328.756 245.893 330.58 246.105 334.188 247.082Z" fill="#971F1E"/>
<path d="M295.187 649.082C298.567 651.847 300.432 653.801 301.187 658.082C301.757 664.526 301.414 670.366 298.187 676.082C295.965 678.63 294.209 680.572 291.187 682.082C285.649 682.313 285.649 682.313 283.187 681.082C283.187 680.092 283.187 679.102 283.187 678.082C282.527 678.082 281.867 678.082 281.187 678.082C279.199 668.391 279.663 661.513 285.187 653.082C288.324 649.789 290.593 648.049 295.187 649.082Z" fill="#961F1E"/>
<path d="M393.813 447.957C397.883 449.314 398.903 450.499 401.188 454.082C402.301 460.933 402.207 468.397 398.524 474.457C396.147 477.348 393.613 479.539 390.188 481.082C386.753 481.162 385.599 480.414 382.938 478.27C379.459 473.921 379.595 468.436 380.188 463.082C381.483 458.093 383.244 453.53 387 449.895C390.188 448.082 390.188 448.082 393.813 447.957Z" fill="#951F1E"/>
<path d="M369.187 346.082C373.123 349.738 374.053 354.724 374.562 359.895C374.366 366.3 371.516 371.91 367.375 376.707C364.187 379.082 364.187 379.082 360.562 379.332C357.321 378.132 355.547 377.274 353.851 374.207C351.68 367.261 352.342 360.001 355.375 353.457C358.717 347.674 362.29 345.033 369.187 346.082Z" fill="#971E1E"/>
<path d="M171.188 390.082C178.55 389.592 178.55 389.592 181.625 391.957C185.328 396.993 184.626 402.551 183.879 408.567C182.82 414.15 181.127 418.025 176.313 421.395C172.831 422.521 169.495 422.736 166.188 421.082C163.091 415.484 162.28 410.437 163.188 404.082C164.254 400.922 165.612 398.018 167.188 395.082C167.518 394.422 167.848 393.762 168.188 393.082C168.848 393.082 169.508 393.082 170.188 393.082C170.518 392.092 170.848 391.102 171.188 390.082Z" fill="#971E1E"/>
<path d="M237.188 571.082C241.37 575.152 242.024 578.157 242.5 583.77C242.431 589.965 239.472 596.603 235.188 601.082C234.528 601.082 233.868 601.082 233.188 601.082C233.188 601.742 233.188 602.402 233.188 603.082C225.754 603.448 225.754 603.448 223.25 601.832C219.811 596.168 220.462 588.398 221.188 582.082C222.649 578.297 224.383 575.035 227.188 572.082C230.513 570.864 233.673 570.643 237.188 571.082Z" fill="#971F1E"/>
<path d="M473.188 405.082C475.674 406.391 476.876 407.144 477.77 409.832C479.08 416.882 479.193 424.109 475.45 430.387C473.22 433.383 471.431 435.111 468.188 437.082C464.027 437.226 462.049 436.744 458.75 434.207C455.756 428.218 456.526 421.594 458.313 415.27C461.073 408.098 465.081 403.731 473.188 405.082Z" fill="#961E1E"/>
<path d="M489.187 504.082C492.624 507.004 493.034 508.872 493.598 513.317C493.915 520.898 493.392 526.376 488.187 532.082C485.079 535.354 483.927 536.034 479.375 536.332C478.323 536.25 477.271 536.167 476.187 536.082C472.283 529.528 471.118 524.522 472.918 517.051C474.247 512.582 475.468 508.962 478.437 505.332C482.497 503.487 484.732 503.375 489.187 504.082Z" fill="#961F1E"/>
<path d="M212.188 473.082C215.125 474.707 215.125 474.707 217.188 478.082C218.306 486.04 218.056 493.48 213.188 500.082C210.386 503.716 209.171 504.91 204.625 505.707C201.188 505.082 201.188 505.082 198.813 502.832C195.891 497.889 195.397 492.732 196.188 487.082C199.158 478.968 202.481 471.55 212.188 473.082Z" fill="#951E1E"/>
<path d="M317.188 539.082C322.813 538.832 322.813 538.832 326.188 541.082C329.534 546.079 328.726 552.346 328.188 558.082C326.578 564.348 323.75 568.745 318.188 572.082C314.203 572.004 312.516 571.301 309.188 569.082C306.95 562.369 306.895 552.783 309.875 546.27C312.21 543.052 313.354 541.934 317.188 541.082C317.188 540.422 317.188 539.762 317.188 539.082Z" fill="#951E1E"/>
<path d="M409.188 536.082C412.035 538.314 413.038 539.632 414.188 543.082C414.836 549.991 413.784 555.684 411.188 562.082C410.528 562.082 409.868 562.082 409.188 562.082C408.528 563.402 407.868 564.722 407.188 566.082C406.528 566.082 405.868 566.082 405.188 566.082C405.188 566.742 405.188 567.402 405.188 568.082C398.829 568.572 398.829 568.572 395.813 566.27C392.552 561.881 392.714 557.327 393.188 552.082C394.147 547.951 395.287 543.884 397.188 540.082C397.848 540.082 398.508 540.082 399.188 540.082C399.188 539.422 399.188 538.762 399.188 538.082C402.592 535.987 405.222 535.587 409.188 536.082Z" fill="#961E1E"/>
<path d="M259.188 321.082C262.757 324.458 264.007 327.202 264.188 332.082C263.629 339.837 261.698 345.488 256.188 351.082C253.188 353.082 253.188 353.082 250.25 352.957C246.623 351.921 245.457 351.079 243.188 348.082C242.783 345.33 242.617 343.072 242.688 340.332C242.696 339.619 242.703 338.907 242.711 338.172C242.899 332.469 244.057 328.779 247.188 324.082C247.848 324.082 248.508 324.082 249.188 324.082C249.188 323.422 249.188 322.762 249.188 322.082C252.762 319.745 255.146 319.819 259.188 321.082Z" fill="#961E1E"/>
<path d="M389.188 619.082C389.848 619.412 390.508 619.742 391.188 620.082C391.188 620.742 391.188 621.402 391.188 622.082C391.848 622.082 392.508 622.082 393.188 622.082C395.678 627.064 394.884 635.062 393.656 640.387C392.938 642.145 392.938 642.145 391.188 645.082C390.651 646.031 390.115 646.98 389.563 647.957C386.527 650.673 384.269 650.905 380.309 651.332C378.188 651.082 378.188 651.082 376.473 649.832C372.57 644.518 373.556 636.293 374.188 630.082C375.407 626.961 376.961 624.572 379.188 622.082C379.665 621.524 380.142 620.966 380.633 620.391C383.237 618.199 385.937 618.846 389.188 619.082Z" fill="#961E1E"/>
<path d="M545.187 364.082C548.323 365.862 549.028 366.605 550.187 370.082C550.745 378.627 551.2 386.106 545.625 393.02C544.187 394.082 544.187 394.082 542.187 394.082C542.187 394.742 542.187 395.402 542.187 396.082C534.729 396.449 534.729 396.449 532.25 394.77C528.708 389.145 529.466 380.924 530.648 374.625C532.882 367.753 537.561 362.756 545.187 364.082Z" fill="#961E1E"/>
<path d="M467.188 288.082C469.553 289.949 470.848 291.403 472.188 294.082C472.807 301.153 472.125 306.642 469.188 313.082C468.899 313.845 468.61 314.609 468.313 315.395C466.645 317.897 464.91 318.845 462.188 320.082C459.125 320.645 459.125 320.645 456.188 320.082C451.614 314.643 450.625 310.063 451.188 303.082C453.632 294.582 456.962 286.409 467.188 288.082Z" fill="#931F1E"/>
<path d="M291.187 424.082C293.552 425.949 294.848 427.403 296.187 430.082C296.919 437.958 296.901 444.485 292.672 451.313C290.992 453.315 289.413 454.708 287.187 456.082C283.437 456.27 283.437 456.27 280.187 456.082C275.483 449.761 275.233 443.809 276.187 436.082C278.576 428.355 282.496 422.841 291.187 424.082Z" fill="#961E1E"/>
<path d="M172.188 340.082C174.89 342.04 176.641 344.129 178.188 347.082C178.791 350.974 178.575 353.156 177.062 356.77C174.234 360.258 171.631 362.78 167.008 363.352C162.508 363.193 159.761 362.242 156.625 358.957C154.668 356.287 154.163 354.946 153.562 351.582C154.36 347.114 155.513 344.769 158.188 341.082C162.373 338.212 167.492 338.542 172.188 340.082Z" fill="#FCF7F6"/>
<path d="M204.188 644.082C204.848 644.082 205.507 644.082 206.188 644.082C206.188 645.072 206.188 646.062 206.188 647.082C206.848 647.082 207.507 647.082 208.188 647.082C208.43 647.637 208.672 648.191 208.922 648.762C209.257 649.486 209.592 650.211 209.938 650.957C210.262 651.677 210.587 652.396 210.922 653.137C212.426 655.449 213.596 656.195 216.188 657.082C216.848 656.752 217.507 656.422 218.188 656.082C218.188 656.742 218.188 657.402 218.188 658.082C218.848 658.082 219.507 658.082 220.188 658.082C220.188 658.742 220.188 659.402 220.188 660.082C220.848 660.082 221.507 660.082 222.188 660.082C222.551 660.821 222.915 661.56 223.289 662.321C229.168 674.291 229.168 674.291 235.926 685.774C236.342 686.536 236.759 687.297 237.188 688.082C236.692 689.072 236.692 689.072 236.188 690.082C231.012 685.196 226.623 680.019 222.438 674.27C221.84 673.454 221.242 672.638 220.626 671.797C204.188 649.044 204.188 649.044 204.188 644.082Z" fill="#FA5555"/>
<path d="M130.187 321.082C130.517 321.082 130.847 321.082 131.187 321.082C131.183 321.877 131.178 322.672 131.174 323.491C131.133 331.079 131.103 338.666 131.083 346.253C131.073 350.151 131.059 354.05 131.036 357.948C129.56 386.107 129.56 386.107 135.187 413.082C135.312 416.028 135.312 416.028 135.187 419.207C135.082 425.35 135.63 431.128 137.187 437.082C137.517 437.412 137.847 437.742 138.187 438.082C138.26 440.435 138.271 442.791 138.25 445.145C138.241 446.435 138.232 447.725 138.222 449.055C138.211 450.054 138.199 451.053 138.187 452.082C137.857 452.082 137.527 452.082 137.187 452.082C136.518 448.076 135.862 444.068 135.216 440.058C134.893 438.069 134.561 436.082 134.228 434.094C130.184 409.301 128.713 384.753 128.923 359.69C128.942 356.911 128.946 354.133 128.949 351.354C128.955 347.994 128.969 344.634 128.984 341.274C128.988 340.048 128.992 338.822 128.997 337.559C129.044 331.969 129.184 326.587 130.187 321.082Z" fill="#CD5455"/>
<path d="M467.188 288.082C469.552 289.949 470.848 291.403 472.188 294.082C472.806 301.153 472.125 306.642 469.188 313.082C468.899 313.845 468.61 314.609 468.312 315.395C466.644 317.897 464.91 318.845 462.188 320.082C459.062 320.52 459.062 320.52 456.188 320.082C454.25 318.332 454.25 318.332 453.188 316.082C453.5 313.832 453.5 313.832 454.188 312.082C456.188 315.082 456.188 315.082 457.188 317.082C459.497 317.082 461.807 317.082 464.188 317.082C464.456 316.546 464.724 316.01 465 315.457C466.188 313.082 466.188 313.082 467.75 310.582C470.2 304.617 471.162 297.334 469.188 291.082C465.492 290.132 462.883 290.132 459.188 291.082C459.188 291.742 459.188 292.402 459.188 293.082C458.527 293.082 457.868 293.082 457.188 293.082C456.919 294.01 456.651 294.939 456.375 295.895C455.276 298.845 454.563 300.138 452.188 302.082C452.721 297.548 454.495 294.725 457.188 291.082C457.837 290.154 457.837 290.154 458.5 289.207C461.396 287.277 463.831 287.67 467.188 288.082Z" fill="#9F1C1B"/>
<path d="M416.188 178.082C416.889 178.763 417.59 179.444 418.312 180.145C421.055 182.437 421.055 182.437 424.375 181.77C425.303 181.543 426.231 181.316 427.188 181.082C427.848 181.412 428.507 181.742 429.188 182.082C432.036 182.018 434.847 181.892 437.688 181.707C438.498 181.658 439.309 181.609 440.144 181.559C445.842 181.203 451.514 180.723 457.188 180.082C451.482 185.788 438.976 185.265 431.366 185.338C418.653 185.315 418.653 185.315 416.188 184.082C416.188 182.102 416.188 180.122 416.188 178.082Z" fill="#619772"/>
<path d="M271.281 173.551C276.486 174.213 281.467 173.921 286.688 173.582C299.23 172.887 311.655 173.383 324.188 174.082C324.188 174.412 324.188 174.742 324.188 175.082C322.907 175.107 321.626 175.132 320.307 175.158C315.517 175.253 310.728 175.353 305.938 175.455C303.872 175.498 301.807 175.539 299.741 175.58C296.757 175.638 293.773 175.701 290.789 175.766C289.878 175.783 288.967 175.799 288.029 175.817C282.746 175.936 277.542 176.281 272.29 176.865C268.577 177.249 264.915 177.142 261.188 177.082C263.188 174.082 263.188 174.082 265.057 173.366C267.299 173.067 269.051 173.201 271.281 173.551Z" fill="#659A75"/>
<path d="M570.188 307.082C580.872 316.476 587.524 336.56 590.188 350.082C590.375 353.77 590.375 353.77 590.188 356.082C589.197 356.082 588.207 356.082 587.188 356.082C587.518 352.782 587.847 349.482 588.188 346.082C587.527 346.082 586.868 346.082 586.188 346.082C585.772 344.574 585.772 344.574 585.348 343.035C584.263 339.241 582.97 335.543 581.625 331.832C579.225 325.196 579.225 325.196 578.188 322.082C577.527 322.082 576.868 322.082 576.188 322.082C575.754 320.865 575.321 319.649 574.875 318.395C573.627 315.036 572.073 312.135 570.188 309.082C570.188 308.422 570.188 307.762 570.188 307.082Z" fill="#B64042"/>
<path d="M165.188 276.082C165.518 276.742 165.847 277.402 166.188 278.082C165.319 280.673 164.393 283.176 163.375 285.707C160.423 293.112 157.907 300.181 157.875 308.27C157.858 309.253 157.841 310.237 157.824 311.25C158.373 315.531 160.081 318.165 163.375 320.895C163.973 321.287 164.571 321.679 165.188 322.082C162.217 322.577 162.217 322.577 159.188 323.082C156.32 317.432 155.723 312.939 155.812 306.645C155.801 305.837 155.789 305.03 155.777 304.198C155.805 298.56 156.915 294.212 159.188 289.082C159.857 287.414 159.857 287.414 160.539 285.711C160.959 284.699 161.38 283.687 161.812 282.645C162.451 281.1 162.451 281.1 163.102 279.524C164.188 277.082 164.188 277.082 165.188 276.082Z" fill="#E46667"/>
<path d="M206.188 268.082C204.868 272.701 203.243 276.348 200.188 280.082C196.938 281.457 196.938 281.457 194.188 282.082C193.391 280.41 193.391 280.41 193.188 278.082C195.172 275.504 195.172 275.504 197.938 272.832C198.84 271.94 199.742 271.048 200.672 270.129C203.188 268.082 203.188 268.082 206.188 268.082Z" fill="#8C2328"/>
<path d="M132.187 408.082C134.187 409.082 134.187 409.082 134.816 410.766C135.271 413.605 135.205 416.271 135.125 419.145C135.069 425.295 135.629 431.122 137.187 437.082C137.517 437.412 137.847 437.742 138.187 438.082C138.26 440.435 138.271 442.791 138.25 445.145C138.241 446.435 138.232 447.725 138.222 449.055C138.211 450.054 138.199 451.053 138.187 452.082C137.857 452.082 137.527 452.082 137.187 452.082C136.463 447.747 135.751 443.409 135.051 439.07C134.812 437.599 134.569 436.129 134.323 434.659C132.831 425.728 131.795 417.176 132.187 408.082Z" fill="#D9565A"/>
<path d="M490.188 241.082C492.712 242.304 495.232 243.534 497.75 244.77C498.807 245.279 498.807 245.279 499.885 245.799C504.686 248.167 508.904 250.868 513.188 254.082C512.197 254.577 512.197 254.577 511.188 255.082C509.169 254.121 507.173 253.112 505.188 252.082C503.902 251.586 502.61 251.107 501.312 250.645C497.087 249.111 493.177 247.149 489.188 245.082C489.518 243.762 489.847 242.442 490.188 241.082Z" fill="#EC5756"/>
<path d="M461.188 597.082C463.497 597.412 465.807 597.742 468.188 598.082C464.188 602.749 460.188 607.416 456.188 612.082C455.857 610.762 455.528 609.442 455.188 608.082C456.178 608.082 457.168 608.082 458.188 608.082C457.94 607.381 457.692 606.68 457.438 605.957C457.088 601.937 458.796 600.199 461.188 597.082Z" fill="#D33D43"/>
<path d="M220.188 669.082C220.848 669.082 221.507 669.082 222.188 669.082C225.188 672.544 225.188 672.544 225.188 675.082C226.178 675.082 227.168 675.082 228.188 675.082C229.178 676.567 229.178 676.567 230.188 678.082C231.147 679.258 231.147 679.258 232.125 680.457C234.065 682.926 235.753 685.289 237.188 688.082C236.857 688.742 236.528 689.402 236.188 690.082C230.02 684.45 224.827 678.016 220.188 671.082C220.188 670.422 220.188 669.762 220.188 669.082Z" fill="#E1555E"/>
<path d="M165.188 235.082C166.508 235.412 167.827 235.742 169.188 236.082C168.342 236.742 167.496 237.402 166.625 238.082C163.95 240.263 161.936 242.618 159.812 245.332C157.389 248.168 155.784 249.647 152.062 250.27C148.076 250.077 146.294 249.509 143.188 247.082C144.508 246.752 145.827 246.422 147.188 246.082C147.188 246.742 147.188 247.402 147.188 248.082C151.267 247.951 151.267 247.951 155.188 247.082C157.489 244.214 157.489 244.214 159.188 241.082C160.505 240.385 161.837 239.713 163.188 239.082C164.456 237.049 164.456 237.049 165.188 235.082Z" fill="#2C0706"/>
<path d="M437.188 623.082C439.188 623.082 439.188 623.082 440.738 624.196C442.732 626.791 442.925 629.05 443.375 632.27C443.613 633.9 443.613 633.9 443.855 635.563C443.965 636.394 444.075 637.226 444.188 638.082C442.538 639.402 440.888 640.722 439.188 642.082C439.188 641.092 439.188 640.102 439.188 639.082C439.848 639.082 440.507 639.082 441.188 639.082C441.188 637.432 441.188 635.782 441.188 634.082C440.527 634.082 439.868 634.082 439.188 634.082C438.857 632.432 438.528 630.782 438.188 629.082C437.857 629.082 437.528 629.082 437.188 629.082C437.188 627.102 437.188 625.122 437.188 623.082Z" fill="#C63937"/>
<path d="M590.188 350.082C591.178 350.577 591.178 350.577 592.188 351.082C592.583 352.876 592.583 352.876 592.785 355.196C592.865 356.032 592.944 356.867 593.026 357.729C593.1 358.609 593.174 359.488 593.25 360.395C593.405 362.12 593.563 363.846 593.723 365.571C593.789 366.339 593.855 367.108 593.922 367.9C594.134 370.092 594.134 370.092 594.775 372.192C595.37 374.918 594.35 376.621 593.188 379.082C592.858 379.082 592.528 379.082 592.188 379.082C591.85 375.374 591.518 371.666 591.188 367.957C591.092 366.911 590.997 365.864 590.899 364.785C590.463 359.87 590.051 355.023 590.188 350.082Z" fill="#1B0000"/>
<path d="M131.187 312.082C132.287 315.426 132.038 317.665 131.312 321.082C129.671 330.002 129.527 339.039 129.187 348.082C128.857 348.082 128.527 348.082 128.187 348.082C128.113 344.08 128.059 340.079 128.023 336.077C128.008 334.718 127.987 333.359 127.961 332C127.701 318.095 127.701 318.095 131.187 312.082Z" fill="#2E0706"/>
<path d="M411.188 209.082C419.578 210.378 427.276 213.096 435.188 216.082C435.188 216.412 435.188 216.742 435.188 217.082C431.333 217.172 427.951 216.854 424.188 216.082C422.521 216.045 420.853 216.035 419.188 216.082C419.188 215.092 419.188 214.102 419.188 213.082C416.547 212.092 413.908 211.102 411.188 210.082C411.188 209.752 411.188 209.422 411.188 209.082Z" fill="#DF595A"/>
<path d="M240.188 249.082C240.848 250.402 241.507 251.722 242.188 253.082C240.867 253.412 239.548 253.742 238.188 254.082C238.188 254.742 238.188 255.402 238.188 256.082C237.163 256.276 236.138 256.469 235.082 256.668C233.721 256.931 232.361 257.194 231 257.457C230.326 257.584 229.653 257.71 228.959 257.84C225.962 258.425 223.212 259.072 220.387 260.246C218.188 261.082 218.188 261.082 215.188 260.082C221.292 257.474 227.255 255.426 233.742 253.989C236.664 252.906 238.146 251.399 240.188 249.082Z" fill="#C95357"/>
<path d="M591.188 380.082C591.518 380.082 591.847 380.082 592.188 380.082C592.214 382.228 592.234 384.374 592.25 386.52C592.262 387.715 592.273 388.91 592.285 390.141C592.188 393.082 592.188 393.082 591.188 394.082C591.003 395.641 590.865 397.205 590.75 398.77C590.391 402.803 589.684 406.291 588.188 410.082C587.527 410.082 586.868 410.082 586.188 410.082C586.821 403.751 588.119 397.66 589.488 391.449C590.275 387.659 590.803 383.932 591.188 380.082Z" fill="#2C0404"/>
<path d="M212.187 473.082C212.187 473.412 212.187 473.742 212.187 474.082C211.28 474.144 210.372 474.206 209.437 474.27C205.357 475.29 204.414 476.583 202.187 480.082C201.48 481.732 200.808 483.398 200.187 485.082C199.197 486.567 199.197 486.567 198.187 488.082C197.736 490.132 197.736 490.132 197.562 492.27C197.439 493.528 197.315 494.786 197.187 496.082C196.857 496.082 196.527 496.082 196.187 496.082C195.479 487.295 197.986 481.564 203.062 474.457C206.117 472.481 208.639 472.809 212.187 473.082Z" fill="#A82222"/>
<path d="M570.188 445.082C571.178 445.412 572.168 445.742 573.188 446.082C569.888 453.012 566.588 459.942 563.188 467.082C562.857 467.082 562.528 467.082 562.188 467.082C562.188 465.102 562.188 463.122 562.188 461.082C562.848 461.082 563.507 461.082 564.188 461.082C564.188 459.762 564.188 458.442 564.188 457.082C564.848 457.082 565.507 457.082 566.188 457.082C566.188 455.432 566.188 453.782 566.188 452.082C567.178 452.082 568.168 452.082 569.188 452.082C569.518 449.772 569.847 447.462 570.188 445.082Z" fill="#BE3F44"/>
<path d="M387.187 450.082C387.847 450.412 388.507 450.742 389.187 451.082C388.586 452.313 387.981 453.542 387.375 454.77C387.038 455.454 386.702 456.139 386.355 456.844C385.187 459.082 385.187 459.082 383.562 461.457C381.885 464.66 381.881 466.805 382 470.395C382.027 471.463 382.054 472.532 382.082 473.633C382.117 474.441 382.151 475.25 382.187 476.082C379.72 471.681 379.548 468.039 380.187 463.082C381.66 458.062 383.21 453.615 387.187 450.082Z" fill="#A72422"/>
<path d="M534.188 108.082C536.195 108.369 538.196 108.701 540.188 109.082C539.198 109.412 538.208 109.742 537.188 110.082C536.235 112.08 536.235 112.08 535.625 114.457C534.738 117.536 534.006 119.356 532.188 122.082C530.188 119.082 530.188 119.082 530.438 116.707C532.388 109.882 532.388 109.882 534.188 108.082Z" fill="#6C9F79"/>
<path d="M184.188 604.082C184.848 604.082 185.507 604.082 186.188 604.082C186.46 604.914 186.46 604.914 186.738 605.762C186.99 606.486 187.241 607.211 187.5 607.957C187.865 609.036 187.865 609.036 188.238 610.137C189.151 612.422 189.151 612.422 192.188 614.082C192.738 616.057 193.281 618.036 193.715 620.039C194.286 622.506 195.174 624.766 196.188 627.082C195.527 627.412 194.868 627.742 194.188 628.082C192.511 624.649 190.848 621.21 189.188 617.77C188.711 616.793 188.234 615.817 187.742 614.811C187.291 613.873 186.84 612.935 186.375 611.969C185.956 611.105 185.537 610.241 185.105 609.351C184.188 607.082 184.188 607.082 184.188 604.082Z" fill="#DD575A"/>
<path d="M371.188 349.082C371.848 349.082 372.507 349.082 373.188 349.082C375.338 352.614 375.567 355.745 375.812 359.832C375.887 361.003 375.962 362.173 376.039 363.379C376.088 364.271 376.137 365.163 376.188 366.082C375.527 366.412 374.868 366.742 374.188 367.082C373.284 368.965 373.284 368.965 372.562 371.145C372.302 371.878 372.042 372.612 371.773 373.367C371.58 373.933 371.387 374.499 371.188 375.082C370.197 374.752 369.207 374.422 368.188 374.082C368.641 373.36 369.095 372.639 369.562 371.895C372.973 365.993 374.212 360.763 372.734 354.012C372.265 352.355 371.732 350.716 371.188 349.082Z" fill="#C93A3A"/>
<path d="M395.188 662.082C395.848 662.082 396.507 662.082 397.188 662.082C397.066 663.785 397.066 663.785 396.188 666.082C394.192 667.811 392.273 669.325 390.125 670.832C389.273 671.449 389.273 671.449 388.404 672.078C387.006 673.089 385.597 674.087 384.188 675.082C383.857 674.092 383.528 673.102 383.188 672.082C383.827 671.979 384.466 671.876 385.125 671.77C386.146 671.429 386.146 671.429 387.188 671.082C387.518 670.092 387.847 669.102 388.188 668.082C389.178 668.082 390.168 668.082 391.188 668.082C391.518 666.762 391.847 665.442 392.188 664.082C393.178 664.082 394.168 664.082 395.188 664.082C395.188 663.422 395.188 662.762 395.188 662.082Z" fill="#C63D45"/>
<path d="M485.188 89.0823C485.848 89.4123 486.507 89.7423 487.188 90.0823C486.197 90.4123 485.207 90.7423 484.188 91.0823C483.857 92.0723 483.528 93.0623 483.188 94.0823C480.024 96.2795 476.768 97.705 473.188 99.0823C471.847 99.7344 470.511 100.396 469.188 101.082C470.661 96.5487 474.248 94.9331 478.188 92.7698C479.15 92.2119 479.15 92.2119 480.133 91.6428C481.78 90.7178 483.481 89.8916 485.188 89.0823Z" fill="#76AE81"/>
<path d="M148.188 500.082C148.848 500.082 149.507 500.082 150.188 500.082C150.392 500.865 150.597 501.647 150.809 502.453C151.078 503.465 151.347 504.477 151.625 505.52C151.892 506.529 152.159 507.538 152.434 508.578C152.947 511 152.947 511 154.188 512.082C155.628 517.077 156.455 521.867 156.188 527.082C154.281 524.222 153.56 522.312 152.68 519.047C152.415 518.073 152.151 517.099 151.879 516.096C151.609 515.081 151.34 514.066 151.062 513.02C150.785 512.001 150.508 510.982 150.223 509.932C148.188 502.368 148.188 502.368 148.188 500.082Z" fill="#DE5A5E"/>
<path d="M160.187 340.082C160.847 340.412 161.507 340.742 162.187 341.082C161.197 341.412 160.207 341.742 159.187 342.082C156.754 346.409 156.589 351.228 156.187 356.082C157.177 356.082 158.167 356.082 159.187 356.082C159.517 357.732 159.847 359.382 160.187 361.082C155.312 357.332 155.312 357.332 154.187 355.082C153.591 349.003 154.857 345.98 158.187 341.082C158.847 340.752 159.507 340.422 160.187 340.082Z" fill="#FDE0DB"/>
<path d="M232.188 686.082C236.188 690.082 240.188 694.082 244.188 698.082C243.197 698.577 243.197 698.577 242.188 699.082C238.818 697.398 237.308 696.263 235.188 693.082C234.197 692.752 233.207 692.422 232.188 692.082C232.188 690.102 232.188 688.122 232.188 686.082Z" fill="#1F0303"/>
<path d="M451.188 223.082C458.141 224.868 464.061 227.338 470.188 231.082C466.642 232.264 466.17 231.892 462.938 230.332C462.15 229.961 461.362 229.59 460.551 229.207C459.771 228.836 458.991 228.465 458.188 228.082C456.836 227.492 455.483 226.907 454.125 226.332C453.156 225.92 452.186 225.507 451.188 225.082C451.188 224.422 451.188 223.762 451.188 223.082Z" fill="#DE5B5E"/>
<path d="M227.188 165.082C229.403 167.218 231.373 169.324 233.25 171.77C235.049 174.327 235.049 174.327 238.188 175.082C238.188 175.742 238.188 176.402 238.188 177.082C239.178 177.412 240.168 177.742 241.188 178.082C241.188 178.742 241.188 179.402 241.188 180.082C237.413 179.496 235.385 177.843 232.562 175.332C231.786 174.657 231.01 173.981 230.211 173.285C228.082 170.968 227.153 169.053 226.188 166.082C226.518 165.752 226.847 165.422 227.188 165.082Z" fill="#659871"/>
<path d="M537.188 73.0823C537.848 73.0823 538.507 73.0823 539.188 73.0823C537.976 80.4291 535.901 87.1542 533.188 94.0823C532.527 93.7523 531.868 93.4223 531.188 93.0823C531.997 90.123 532.81 87.165 533.625 84.2073C533.97 82.9446 533.97 82.9446 534.322 81.6565C534.545 80.8508 534.767 80.0452 534.996 79.2151C535.2 78.4715 535.405 77.7278 535.615 76.9617C536.188 75.0823 536.188 75.0823 537.188 73.0823Z" fill="#7AB186"/>
<path d="M397.188 664.082C397.848 664.412 398.507 664.742 399.188 665.082C398.517 665.645 398.517 665.645 397.832 666.219C394.934 668.672 392.157 671.113 389.5 673.832C387.395 675.88 385.82 676.902 383.188 678.082C382.527 678.742 381.868 679.402 381.188 680.082C380.527 679.422 379.868 678.762 379.188 678.082C380.068 677.407 380.948 676.731 381.855 676.035C383.029 675.134 384.202 674.233 385.375 673.332C385.953 672.889 386.531 672.445 387.127 671.989C390.51 669.389 393.865 666.76 397.188 664.082Z" fill="#270404"/>
<path d="M424.188 155.082C424.518 155.082 424.847 155.082 425.188 155.082C425.269 156.831 425.327 158.582 425.375 160.332C425.41 161.307 425.445 162.281 425.48 163.285C425.146 166.479 424.421 167.811 422.188 170.082C421.527 170.082 420.868 170.082 420.188 170.082C419.857 170.742 419.528 171.402 419.188 172.082C420.354 166.154 421.943 160.694 424.188 155.082Z" fill="#6EA77B"/>
<path d="M554.187 477.082C554.847 477.082 555.507 477.082 556.187 477.082C555.609 481.145 554.296 483.93 552.125 487.395C551.577 488.278 551.029 489.161 550.464 490.071C550.043 490.734 549.621 491.398 549.187 492.082C548.028 488.604 548.413 487.74 549.625 484.395C549.912 483.587 550.2 482.778 550.496 481.946C550.724 481.331 550.952 480.716 551.187 480.082C551.847 480.082 552.507 480.082 553.187 480.082C553.517 479.092 553.847 478.102 554.187 477.082Z" fill="#C03E42"/>
<path d="M167.188 236.082C167.848 236.412 168.507 236.742 169.188 237.082C169 238.895 169 238.895 168.188 241.082C166.532 242.101 164.865 243.1 163.188 244.082C161.86 246.149 161.86 246.149 161.188 248.082C159.867 247.752 158.548 247.422 157.188 247.082C160.487 243.452 163.787 239.822 167.188 236.082Z" fill="#DA5657"/>
<path d="M462.187 409.082C463.405 412.736 462.852 413.284 461.25 416.645C458.986 421.927 458.752 426.406 459.187 432.082C458.527 431.752 457.867 431.422 457.187 431.082C456.826 423.936 457.049 417.631 460.187 411.082C460.847 410.422 461.507 409.762 462.187 409.082Z" fill="#A82322"/>
<path d="M169.188 334.082C169.435 334.68 169.683 335.279 169.938 335.895C171.351 338.369 172.838 339.516 175.188 341.082C174.857 341.742 174.528 342.402 174.188 343.082C173.486 342.608 172.785 342.134 172.062 341.645C169.027 339.995 166.596 339.479 163.188 339.082C163.518 337.762 163.847 336.442 164.188 335.082C165.837 334.752 167.487 334.422 169.188 334.082Z" fill="#CF4649"/>
<path d="M253.188 706.082C255.439 707.35 257.689 708.621 259.938 709.895C260.572 710.251 261.206 710.608 261.859 710.975C265.136 712.835 268.237 714.721 271.188 717.082C267.526 716.455 264.306 715.438 260.875 714.02C259.55 713.476 259.55 713.476 258.199 712.922C257.535 712.645 256.871 712.368 256.188 712.082C256.188 711.422 256.188 710.762 256.188 710.082C255.197 709.752 254.207 709.422 253.188 709.082C253.188 708.092 253.188 707.102 253.188 706.082Z" fill="#260202"/>
<path d="M538.188 508.082C538.518 509.072 538.847 510.062 539.188 511.082C538.197 512.567 538.197 512.567 537.188 514.082C536.803 515.738 536.46 517.405 536.188 519.082C535.548 519.185 534.909 519.289 534.25 519.395C533.229 519.735 533.229 519.735 532.188 520.082C531.857 521.072 531.528 522.062 531.188 523.082C530.527 523.082 529.868 523.082 529.188 523.082C530.804 519.653 532.763 516.52 534.812 513.332C535.444 512.347 536.076 511.363 536.727 510.348C537.209 509.6 537.691 508.853 538.188 508.082Z" fill="#290303"/>
<path d="M535.188 509.082C535.848 509.082 536.507 509.082 537.188 509.082C535.802 512.947 533.998 516.05 531.625 519.395C531.005 520.278 530.385 521.161 529.746 522.071C529.232 522.734 528.717 523.398 528.188 524.082C527.857 524.082 527.528 524.082 527.188 524.082C527.188 522.102 527.188 520.122 527.188 518.082C527.848 518.082 528.507 518.082 529.188 518.082C529.848 517.092 530.507 516.102 531.188 515.082C531.848 515.082 532.507 515.082 533.188 515.082C533.332 514.278 533.476 513.474 533.625 512.645C534.188 510.082 534.188 510.082 535.188 509.082Z" fill="#BB4145"/>
<path d="M434.188 646.082C434.188 647.749 434.188 649.416 434.188 651.082C433.197 651.577 433.197 651.577 432.188 652.082C430.186 655.261 429.69 658.395 429.188 662.082C428.857 662.082 428.528 662.082 428.188 662.082C427.527 659.112 426.868 656.142 426.188 653.082C428.828 650.772 431.467 648.462 434.188 646.082Z" fill="#F4E8E3"/>
<path d="M431.188 646.082C432.178 646.412 433.168 646.742 434.188 647.082C432.014 649.358 429.868 651.417 427.188 653.082C423.452 652.518 421.844 651.739 419.188 649.082C421.828 649.412 424.467 649.742 427.188 650.082C427.518 649.092 427.847 648.102 428.188 647.082C429.178 647.412 430.168 647.742 431.188 648.082C431.188 647.422 431.188 646.762 431.188 646.082Z" fill="#BA4143"/>
<path d="M197.188 628.082C199.188 631.832 199.188 631.832 199.188 634.082C200.178 633.752 201.168 633.422 202.188 633.082C204.464 640.047 204.464 640.047 203.188 644.082C201.987 641.984 200.802 639.88 199.625 637.77C199.112 636.877 199.112 636.877 198.588 635.967C197.71 634.379 196.942 632.732 196.188 631.082C196.518 630.092 196.847 629.102 197.188 628.082Z" fill="#E3575E"/>
<path d="M504.188 550.082C504.518 550.742 504.847 551.402 505.188 552.082C505.848 552.412 506.507 552.742 507.188 553.082C502.238 559.517 502.238 559.517 497.188 566.082C496.857 564.762 496.528 563.442 496.188 562.082C497.178 561.752 498.168 561.422 499.188 561.082C498.857 560.092 498.528 559.102 498.188 558.082C499.394 557.216 499.394 557.216 500.625 556.332C503.166 554.101 503.839 553.338 504.188 550.082Z" fill="#C64043"/>
<path d="M136.188 261.082C137.387 264.551 136.977 266.682 135.875 270.145C135.611 271.002 135.346 271.859 135.074 272.742C134.188 275.082 134.188 275.082 132.188 278.082C131.527 278.082 130.868 278.082 130.188 278.082C130.693 271.852 133.514 266.628 136.188 261.082Z" fill="#E96D70"/>
<path d="M616.188 230.082C616.188 231.072 616.188 232.062 616.188 233.082C614.958 233.571 614.958 233.571 613.703 234.071C612.625 234.508 611.548 234.945 610.438 235.395C609.37 235.824 608.303 236.253 607.203 236.696C604.522 237.928 602.449 239.21 600.188 241.082C600.25 239.332 600.25 239.332 601.188 237.082C605.922 233.893 610.817 231.967 616.188 230.082Z" fill="#73A580"/>
<path d="M144.187 485.082C146.085 488.464 146.99 491.817 147.875 495.582C148.147 496.706 148.419 497.83 148.699 498.989C149.151 501.851 149.165 503.405 148.187 506.082C146.244 503.167 145.911 502.253 145.625 498.957C145.62 495.308 145.62 495.308 144.187 494.082C144.115 492.563 144.103 491.041 144.125 489.52C144.134 488.693 144.143 487.867 144.152 487.016C144.164 486.378 144.175 485.74 144.187 485.082Z" fill="#380A0A"/>
<path d="M236.562 232.895C237.429 233.617 238.295 234.339 239.188 235.082C239.188 236.072 239.188 237.062 239.188 238.082C238.197 237.422 237.207 236.762 236.188 236.082C236.188 235.422 236.188 234.762 236.188 234.082C230.577 234.082 224.968 234.082 219.188 234.082C224.662 230.433 230.705 229.749 236.562 232.895Z" fill="#FEDBDB"/>
<path d="M356.188 197.082C358.667 197.055 361.146 197.035 363.625 197.02C364.332 197.011 365.039 197.003 365.768 196.994C367.574 196.986 369.381 197.03 371.188 197.082C371.518 197.412 371.847 197.742 372.188 198.082C373.699 198.474 375.222 198.822 376.75 199.145C377.576 199.321 378.403 199.498 379.254 199.68C379.892 199.813 380.53 199.945 381.188 200.082C377.954 201.107 375.542 201.033 372.203 200.524C370.801 200.316 370.801 200.316 369.371 200.104C368.403 199.952 367.435 199.801 366.438 199.645C365.454 199.497 364.47 199.35 363.457 199.197C361.033 198.833 358.61 198.461 356.188 198.082C356.188 197.752 356.188 197.422 356.188 197.082Z" fill="#2C0504"/>
<path d="M295.188 649.082C295.518 649.742 295.847 650.402 296.188 651.082C295.301 651.33 294.414 651.577 293.5 651.832C290.083 653.122 287.908 654.682 285.188 657.082C284.527 656.752 283.868 656.422 283.188 656.082C288.979 648.919 288.979 648.919 295.188 649.082Z" fill="#A92422"/>
<path d="M544.188 493.082C545.178 493.082 546.168 493.082 547.188 493.082C545.871 497.691 544.036 501.224 541.188 505.082C540.857 505.082 540.528 505.082 540.188 505.082C539.438 502.332 539.438 502.332 539.188 499.082C541.062 496.832 541.062 496.832 543.188 495.082C543.518 494.422 543.847 493.762 544.188 493.082Z" fill="#C64043"/>
<path d="M576.188 436.082C577.57 440.508 576.699 443.794 575.188 448.082C573.688 450.582 573.688 450.582 572.188 452.082C571.527 452.082 570.868 452.082 570.188 452.082C571.908 446.634 574.035 441.371 576.188 436.082Z" fill="#2A0404"/>
<path d="M582.188 411.082C583.178 411.082 584.168 411.082 585.188 411.082C584.904 412.521 584.611 413.959 584.313 415.395C584.069 416.596 584.069 416.596 583.821 417.821C583.188 420.082 583.188 420.082 581.188 423.082C579.759 414.511 579.759 414.511 582.188 411.082Z" fill="#C84045"/>
<path d="M204.188 644.082C204.848 644.082 205.507 644.082 206.188 644.082C206.188 645.072 206.188 646.062 206.188 647.082C206.848 647.082 207.507 647.082 208.188 647.082C208.568 647.896 208.568 647.896 208.957 648.727C209.301 649.442 209.645 650.158 210 650.895C210.336 651.602 210.673 652.31 211.02 653.039C212.194 655.094 213.444 656.498 215.188 658.082C214.197 659.567 214.197 659.567 213.188 661.082C211.682 658.627 210.183 656.168 208.688 653.707C208.258 653.009 207.829 652.31 207.387 651.59C204.188 646.309 204.188 646.309 204.188 644.082Z" fill="#D5585A"/>
<path d="M335.188 248.082C336.178 248.082 337.168 248.082 338.188 248.082C339.752 251.211 339.372 254.527 339.375 257.957C339.387 258.678 339.399 259.398 339.412 260.141C339.423 263.947 339.323 266.857 337.188 270.082C336.857 269.422 336.528 268.762 336.188 268.082C336.518 267.092 336.847 266.102 337.188 265.082C337.591 259.109 337.6 253.661 335.188 248.082Z" fill="#CD3E3F"/>
<path d="M514.188 191.082C519.137 191.082 524.088 191.082 529.188 191.082C525.419 192.967 523.507 193.417 519.438 193.707C518.453 193.782 517.468 193.857 516.453 193.934C515.705 193.983 514.958 194.032 514.188 194.082C514.188 193.092 514.188 192.102 514.188 191.082Z" fill="#76B789"/>
<path d="M328.188 708.082C328.188 708.742 328.188 709.402 328.188 710.082C327.527 710.082 326.868 710.082 326.188 710.082C325.527 711.402 324.868 712.722 324.188 714.082C321.217 713.752 318.247 713.422 315.188 713.082C317.645 711.444 319.533 710.463 322.25 709.457C322.942 709.197 323.634 708.936 324.348 708.668C326.188 708.082 326.188 708.082 328.188 708.082Z" fill="#220505"/>
<path d="M445.188 622.082C445.518 622.742 445.848 623.402 446.188 624.082C445.858 624.742 445.528 625.402 445.188 626.082C444.528 626.082 443.868 626.082 443.188 626.082C443.188 628.392 443.188 630.702 443.188 633.082C444.178 632.752 445.168 632.422 446.188 632.082C446.518 634.392 446.848 636.702 447.188 639.082C444.461 636.969 442.435 635.341 441.75 631.852C441.592 625.773 441.592 625.773 443.719 623.309C444.204 622.904 444.688 622.499 445.188 622.082Z" fill="#280807"/>
<path d="M521.188 260.082C524.47 261.573 527.118 263.468 529.938 265.707C531.136 266.655 531.136 266.655 532.359 267.621C532.963 268.103 533.566 268.586 534.188 269.082C533.197 269.412 532.207 269.742 531.188 270.082C531.188 269.422 531.188 268.762 531.188 268.082C530.197 268.082 529.207 268.082 528.188 268.082C528.188 267.422 528.188 266.762 528.188 266.082C527.424 265.794 526.661 265.505 525.875 265.207C523.188 264.082 523.188 264.082 520.188 262.082C520.518 261.422 520.847 260.762 521.188 260.082Z" fill="#C03F43"/>
<path d="M236.188 253.082C233.24 255.047 231.068 255.838 227.688 256.77C226.728 257.042 225.769 257.314 224.781 257.594C222.188 258.082 222.188 258.082 219.188 257.082C219.848 257.082 220.507 257.082 221.188 257.082C221.188 256.422 221.188 255.762 221.188 255.082C226.431 253.334 230.661 252.888 236.188 253.082Z" fill="#FEE7E4"/>
<path d="M219.188 207.082C218.527 208.732 217.868 210.382 217.188 212.082C213.888 212.412 210.588 212.742 207.188 213.082C207.188 212.422 207.188 211.762 207.188 211.082C208.811 210.411 210.436 209.746 212.062 209.082C212.967 208.711 213.872 208.34 214.805 207.957C217.188 207.082 217.188 207.082 219.188 207.082Z" fill="#DD565B"/>
<path d="M355.188 48.0823C357.688 50.3948 357.688 50.3948 360.188 53.0823C360.188 54.0723 360.188 55.0623 360.188 56.0823C359.197 55.7523 358.207 55.4223 357.188 55.0823C356.857 55.7423 356.528 56.4023 356.188 57.0823C355.857 55.7623 355.528 54.4423 355.188 53.0823C354.527 53.0823 353.868 53.0823 353.188 53.0823C353.848 51.4323 354.507 49.7823 355.188 48.0823Z" fill="#669E73"/>
<path d="M417.344 649.867C423.728 650.623 423.728 650.623 426.25 653.145C426.559 653.784 426.869 654.424 427.188 655.082C425.867 655.082 424.548 655.082 423.188 655.082C422.857 654.422 422.528 653.762 422.188 653.082C418.888 653.082 415.588 653.082 412.188 653.082C415.188 650.082 415.188 650.082 417.344 649.867Z" fill="#330706"/>
<path d="M515.187 539.082C515.847 539.412 516.507 539.742 517.187 540.082C512.732 546.022 512.732 546.022 508.187 552.082C507.187 549.082 507.187 549.082 508.078 547.11C508.526 546.42 508.975 545.73 509.437 545.02C510.095 543.981 510.095 543.981 510.765 542.922C512.187 541.082 512.187 541.082 515.187 539.082Z" fill="#B94345"/>
<path d="M141.188 243.082C142.812 244.77 142.812 244.77 144.188 247.082C143.562 249.457 143.562 249.457 142.188 252.082C141.651 253.175 141.115 254.269 140.562 255.395C140.109 256.282 139.655 257.169 139.188 258.082C138.857 258.082 138.528 258.082 138.188 258.082C138.665 253.942 139.283 250.764 141.188 247.082C141.188 245.762 141.188 244.442 141.188 243.082Z" fill="#F6E9E2"/>
<path d="M363.188 56.0823C364.178 56.7423 365.168 57.4023 366.188 58.0823C365.878 58.7217 365.569 59.361 365.25 60.0198C363.868 64.0028 363.534 67.8988 363.188 72.0823C361.188 70.0823 361.188 70.0823 360.938 67.2073C361.179 64.1843 361.79 62.6901 363.188 60.0823C362.857 59.4223 362.528 58.7623 362.188 58.0823C362.518 57.4223 362.847 56.7623 363.188 56.0823Z" fill="#6B9E7B"/>
<path d="M338.188 45.0823C339.178 45.7423 340.168 46.4023 341.188 47.0823C341.188 47.7423 341.188 48.4023 341.188 49.0823C342.322 49.371 343.456 49.6598 344.625 49.9573C345.801 50.3285 346.976 50.6998 348.188 51.0823C348.518 51.7423 348.847 52.4023 349.188 53.0823C343.481 52.6543 339.777 50.2388 335.188 47.0823C336.178 46.4223 337.168 45.7623 338.188 45.0823Z" fill="#081A0B"/>
<path d="M157.188 534.082C159.298 537.248 159.943 539.594 160.812 543.27C161.203 544.9 161.203 544.9 161.602 546.563C161.795 547.394 161.988 548.226 162.188 549.082C161.527 549.082 160.868 549.082 160.188 549.082C160.188 548.422 160.188 547.762 160.188 547.082C159.527 547.082 158.868 547.082 158.188 547.082C157.857 542.792 157.528 538.502 157.188 534.082Z" fill="#2F0808"/>
<path d="M315.188 175.082C317.458 175.001 319.729 174.943 322 174.895C323.265 174.86 324.529 174.825 325.832 174.789C329.188 175.082 329.188 175.082 331.137 176.594C331.483 177.085 331.83 177.576 332.188 178.082C330.438 178.707 330.438 178.707 328.188 179.082C327.579 178.773 326.971 178.464 326.344 178.145C323.95 176.965 322.084 176.691 319.438 176.457C318.638 176.383 317.839 176.308 317.016 176.231C316.412 176.182 315.809 176.133 315.188 176.082C315.188 175.752 315.188 175.422 315.188 175.082Z" fill="#0D2413"/>
<path d="M355.188 686.082C358.158 686.412 361.128 686.742 364.188 687.082C364.188 687.742 364.188 688.402 364.188 689.082C362.207 690.072 360.227 691.062 358.188 692.082C358.188 691.422 358.188 690.762 358.188 690.082C357.527 690.082 356.868 690.082 356.188 690.082C355.857 688.762 355.528 687.442 355.188 686.082Z" fill="#CD3F43"/>
<path d="M323.188 540.082C326.188 541.082 326.188 541.082 327.367 542.723C328.453 545.845 328.378 548.535 328.312 551.832C328.294 553.003 328.276 554.173 328.258 555.379C328.223 556.717 328.223 556.717 328.188 558.082C327.857 558.082 327.528 558.082 327.188 558.082C327.188 554.122 327.188 550.162 327.188 546.082C326.527 546.082 325.868 546.082 325.188 546.082C323.188 543.082 323.188 543.082 323.188 540.082Z" fill="#A31C1D"/>
<path d="M554.188 288.082C558.748 291.695 562.204 295.07 565.188 300.082C564.197 299.752 563.207 299.422 562.188 299.082C562.188 298.422 562.188 297.762 562.188 297.082C561.197 296.752 560.207 296.422 559.188 296.082C559.188 295.422 559.188 294.762 559.188 294.082C558.527 294.082 557.868 294.082 557.188 294.082C555.049 291.944 554.761 290.95 554.188 288.082Z" fill="#B74042"/>
<path d="M184.188 254.082C181.878 256.392 179.568 258.702 177.188 261.082C176.527 260.752 175.868 260.422 175.188 260.082C175.188 259.422 175.188 258.762 175.188 258.082C175.848 258.082 176.507 258.082 177.188 258.082C177.291 257.443 177.394 256.804 177.5 256.145C177.727 255.464 177.954 254.784 178.188 254.082C181.188 253.082 181.188 253.082 184.188 254.082Z" fill="#ED6362"/>
<path d="M585.188 249.082C586.178 249.577 586.178 249.577 587.188 250.082C590.861 250.216 593.686 250.249 597.188 249.082C597.518 249.742 597.847 250.402 598.188 251.082C596.752 251.588 595.314 252.087 593.875 252.582C592.674 253 592.674 253 591.449 253.426C589.188 254.082 589.188 254.082 586.188 254.082C585.857 252.432 585.528 250.782 585.188 249.082Z" fill="#6E9E7A"/>
<path d="M232.188 203.082C232.188 203.742 232.188 204.402 232.188 205.082C228.52 207.044 225.315 208.475 221.188 209.082C220.857 208.092 220.528 207.102 220.188 206.082C221.623 205.577 223.061 205.078 224.5 204.582C225.301 204.304 226.101 204.025 226.926 203.739C229.188 203.082 229.188 203.082 232.188 203.082Z" fill="#D65457"/>
<path d="M376.188 174.082C380.477 174.412 384.767 174.742 389.188 175.082C389.518 176.402 389.847 177.722 390.188 179.082C385.351 178.092 380.711 177.125 376.188 175.082C376.188 174.752 376.188 174.422 376.188 174.082Z" fill="#598D69"/>
<path d="M454.188 111.082C454.848 112.402 455.507 113.722 456.188 115.082C455.197 115.082 454.207 115.082 453.188 115.082C452.796 116.052 452.404 117.021 452 118.02C450.188 121.082 450.188 121.082 447.5 121.957C446.737 121.999 445.974 122.04 445.188 122.082C446.122 120.809 447.06 119.539 448 118.27C448.522 117.562 449.044 116.854 449.582 116.125C451.019 114.297 452.506 112.683 454.188 111.082Z" fill="#6DA87B"/>
<path d="M144.188 248.082C145.188 250.082 145.188 250.082 144.375 253.145C143.188 256.082 143.188 256.082 141.188 257.082C141.188 258.072 141.188 259.062 141.188 260.082C140.197 260.082 139.207 260.082 138.188 260.082C139.506 255.467 141.401 251.983 144.188 248.082Z" fill="#EB676A"/>
<path d="M582.188 327.082C582.848 327.082 583.507 327.082 584.188 327.082C587.229 332.31 588.694 336.009 588.188 342.082C586.141 339.013 585.19 336.391 584.062 332.895C583.709 331.808 583.356 330.721 582.992 329.602C582.727 328.77 582.461 327.939 582.188 327.082Z" fill="#270202"/>
<path d="M175.188 316.082C176.508 316.412 177.827 316.742 179.188 317.082C174.845 321.425 171.052 321.827 165.188 322.082C165.188 321.752 165.188 321.422 165.188 321.082C165.826 320.889 166.464 320.696 167.121 320.496C167.947 320.236 168.774 319.976 169.625 319.707C170.861 319.324 170.861 319.324 172.121 318.934C174.365 318.273 174.365 318.273 175.188 316.082Z" fill="#FCDDD5"/>
<path d="M202.188 273.082C202.848 273.412 203.507 273.742 204.188 274.082C202.082 277.807 200.945 279.762 196.938 281.457C195.576 281.767 195.576 281.767 194.188 282.082C194.188 281.422 194.188 280.762 194.188 280.082C194.992 279.608 195.796 279.134 196.625 278.645C199.479 277.282 199.479 277.282 200.188 274.082C200.848 273.752 201.507 273.422 202.188 273.082Z" fill="#A11B1D"/>
<path d="M492.188 215.082C492.848 215.082 493.507 215.082 494.188 215.082C494.518 216.732 494.847 218.382 495.188 220.082C496.508 220.082 497.827 220.082 499.188 220.082C499.518 221.072 499.847 222.062 500.188 223.082C496.701 221.973 493.413 220.819 490.188 219.082C490.188 218.422 490.188 217.762 490.188 217.082C490.848 217.082 491.507 217.082 492.188 217.082C492.188 216.422 492.188 215.762 492.188 215.082Z" fill="#5F9B73"/>
<path d="M485.188 167.082C481.557 169.392 477.928 171.702 474.188 174.082C473.527 173.422 472.868 172.762 472.188 172.082C473.784 171.049 475.39 170.031 477 169.02C477.893 168.451 478.787 167.883 479.707 167.297C482.188 166.082 482.188 166.082 485.188 167.082Z" fill="#60906D"/>
<path d="M203.188 644.082C210.188 652.531 210.188 652.531 210.188 656.082C209.527 656.082 208.868 656.082 208.188 656.082C208.188 655.422 208.188 654.762 208.188 654.082C207.527 654.082 206.868 654.082 206.188 654.082C206.188 652.762 206.188 651.442 206.188 650.082C205.197 649.752 204.207 649.422 203.188 649.082C203.188 647.432 203.188 645.782 203.188 644.082Z" fill="#2A0505"/>
<path d="M440.188 630.082C442.341 632.704 443.588 634.726 444.188 638.082C442.538 639.402 440.888 640.722 439.188 642.082C439.188 641.092 439.188 640.102 439.188 639.082C439.848 639.082 440.507 639.082 441.188 639.082C440.857 636.112 440.528 633.142 440.188 630.082Z" fill="#C05052"/>
<path d="M494.188 522.082C494.518 522.082 494.847 522.082 495.188 522.082C495.188 523.732 495.188 525.382 495.188 527.082C494.857 527.082 494.528 527.082 494.188 527.082C494.188 525.432 494.188 523.782 494.188 522.082ZM491.188 526.082C492.178 526.742 493.168 527.402 494.188 528.082C491.878 530.392 489.568 532.702 487.188 535.082C486.527 534.752 485.868 534.422 485.188 534.082C486.457 532.585 487.727 531.087 488.996 529.59C490.275 528.076 490.275 528.076 491.188 526.082Z" fill="#CD3939"/>
<path d="M192.188 279.082C192.848 279.742 193.507 280.402 194.188 281.082C195.505 281.78 196.837 282.452 198.188 283.082C195.547 283.742 192.908 284.402 190.188 285.082C190.188 286.072 190.188 287.062 190.188 288.082C189.527 288.082 188.868 288.082 188.188 288.082C189.386 284.999 190.665 282.019 192.188 279.082Z" fill="#C64549"/>
<path d="M217.188 260.082C215.566 261.088 213.94 262.086 212.312 263.082C210.955 263.918 210.955 263.918 209.57 264.77C207.188 266.082 207.188 266.082 205.188 266.082C205.518 265.092 205.847 264.102 206.188 263.082C206.848 263.082 207.507 263.082 208.188 263.082C208.518 262.422 208.847 261.762 209.188 261.082C209.848 261.412 210.507 261.742 211.188 262.082C211.188 261.422 211.188 260.762 211.188 260.082C213.678 258.837 214.598 259.305 217.188 260.082Z" fill="#FDE4E2"/>
<path d="M499.188 246.082C509.93 251.085 509.93 251.085 513.188 255.082C508.215 253.318 503.753 250.688 499.188 248.082C499.188 247.422 499.188 246.762 499.188 246.082Z" fill="#DB595B"/>
<path d="M604.188 237.082C604.848 237.412 605.508 237.742 606.188 238.082C604.818 241.243 604.199 242.075 601.188 244.082C601.518 244.742 601.848 245.402 602.188 246.082C601.528 246.082 600.868 246.082 600.188 246.082C599.858 247.072 599.528 248.062 599.188 249.082C598.834 246.114 598.646 243.926 600.301 241.348C601.543 239.879 602.861 238.475 604.188 237.082Z" fill="#041405"/>
<path d="M239.188 176.082C242.158 176.412 245.128 176.742 248.188 177.082C248.188 178.072 248.188 179.062 248.188 180.082C243.733 180.577 243.733 180.577 239.188 181.082C239.848 180.752 240.507 180.422 241.188 180.082C240.527 178.762 239.868 177.442 239.188 176.082Z" fill="#589669"/>
<path d="M216.188 123.082C216.848 123.412 217.507 123.742 218.188 124.082C218.188 126.392 218.188 128.702 218.188 131.082C217.197 131.577 217.197 131.577 216.188 132.082C215.197 131.092 214.207 130.102 213.188 129.082C214.178 127.102 215.168 125.122 216.188 123.082Z" fill="#76B985"/>
<path d="M374.188 87.0823C376.986 89.6102 378.645 91.2864 379.188 95.0823C377.312 94.9573 377.312 94.9573 375.188 94.0823C373.938 91.0198 373.938 91.0198 373.188 88.0823C373.518 87.7523 373.847 87.4223 374.188 87.0823Z" fill="#609972"/>
<path d="M314.188 35.0823C314.848 35.0823 315.507 35.0823 316.188 35.0823C317.188 38.0823 317.188 38.0823 316.188 41.0823C315.966 42.9744 315.781 44.8711 315.625 46.7698C315.541 47.7636 315.457 48.7575 315.371 49.7815C315.311 50.5408 315.25 51.3 315.188 52.0823C314.857 52.0823 314.528 52.0823 314.188 52.0823C314.188 46.4723 314.188 40.8623 314.188 35.0823Z" fill="#7AB68C"/>
<path d="M450.188 613.082C451.178 613.082 452.168 613.082 453.188 613.082C451.604 617.357 448.682 619.348 445.188 622.082C445.438 620.207 445.438 620.207 446.188 618.082C448.25 616.832 448.25 616.832 450.188 616.082C450.188 615.092 450.188 614.102 450.188 613.082Z" fill="#B93E46"/>
<path d="M458.188 601.082C458.373 602.041 458.373 602.041 458.562 603.02C458.872 604.041 458.872 604.041 459.188 605.082C459.848 605.412 460.507 605.742 461.188 606.082C459.538 608.062 457.888 610.042 456.188 612.082C455.857 610.762 455.528 609.442 455.188 608.082C456.178 608.082 457.168 608.082 458.188 608.082C457.909 606.907 457.909 606.907 457.625 605.707C457.188 603.082 457.188 603.082 458.188 601.082Z" fill="#BF3D40"/>
<path d="M521.188 526.082C521.518 526.742 521.847 527.402 522.188 528.082C523.178 528.412 524.168 528.742 525.188 529.082C523.207 531.722 521.227 534.362 519.188 537.082C518.857 535.762 518.528 534.442 518.188 533.082C518.848 532.752 519.507 532.422 520.188 532.082C520.845 529.053 520.845 529.053 521.188 526.082Z" fill="#BF3E42"/>
<path d="M158.188 298.082C158.518 298.082 158.847 298.082 159.188 298.082C160.312 304.453 160.127 308.383 157.188 314.082C157.16 312.166 157.141 310.249 157.125 308.332C157.113 307.265 157.102 306.198 157.09 305.098C157.172 302.549 157.441 300.503 158.188 298.082Z" fill="#FCDED6"/>
<path d="M543.188 248.082C548.137 249.072 548.137 249.072 553.188 250.082C551.188 252.082 551.188 252.082 549.242 252.278C547.224 252.212 545.206 252.147 543.188 252.082C543.188 250.762 543.188 249.442 543.188 248.082Z" fill="#609771"/>
<path d="M579.188 205.082C583.803 206.401 587.286 208.296 591.188 211.082C590.197 211.577 590.197 211.577 589.188 212.082C587.153 211.154 585.155 210.145 583.188 209.082C582.404 208.69 581.62 208.299 580.812 207.895C580.276 207.627 579.74 207.359 579.188 207.082C579.188 206.422 579.188 205.762 579.188 205.082Z" fill="#76B084"/>
<path d="M237.188 688.082C237.848 688.082 238.507 688.082 239.188 688.082C242.41 693.356 242.41 693.356 243.188 695.082C242.857 695.742 242.528 696.402 242.188 697.082C240.207 694.772 238.227 692.462 236.188 690.082C236.518 689.422 236.847 688.762 237.188 688.082Z" fill="#BB4242"/>
<path d="M216.188 660.082C217.178 660.412 218.168 660.742 219.188 661.082C219.518 663.722 219.847 666.362 220.188 669.082C215.312 664.457 215.312 664.457 214.188 661.082C214.848 660.752 215.507 660.422 216.188 660.082Z" fill="#DD5657"/>
<path d="M413.188 538.082C413.518 538.742 413.847 539.402 414.188 540.082C414.848 540.082 415.507 540.082 416.188 540.082C416.438 547.707 416.438 547.707 414.188 551.082C413.857 546.792 413.528 542.502 413.188 538.082Z" fill="#D44141"/>
<path d="M171.188 363.082C166.793 366.134 166.793 366.134 164 365.895C162.188 365.082 162.188 365.082 160.188 363.082C161.645 362.887 163.103 362.702 164.562 362.52C165.375 362.415 166.187 362.311 167.023 362.203C169.188 362.082 169.188 362.082 171.188 363.082Z" fill="#CD4449"/>
<path d="M240.188 249.082C240.848 250.402 241.507 251.722 242.188 253.082C240.867 253.412 239.548 253.742 238.188 254.082C238.188 254.742 238.188 255.402 238.188 256.082C236.538 256.082 234.888 256.082 233.188 256.082C233.188 255.422 233.188 254.762 233.188 254.082C234.831 253.044 236.5 252.047 238.188 251.082C238.848 250.422 239.507 249.762 240.188 249.082Z" fill="#D34E55"/>
<path d="M228.188 230.082C229.98 230.169 231.772 230.277 233.562 230.395C235.059 230.482 235.059 230.482 236.586 230.571C237.444 230.739 238.303 230.908 239.188 231.082C239.848 232.072 240.507 233.062 241.188 234.082C240.197 234.412 239.207 234.742 238.188 235.082C236.505 234.108 234.84 233.105 233.188 232.082C230.495 231.376 230.495 231.376 228.188 231.082C228.188 230.752 228.188 230.422 228.188 230.082Z" fill="#EB6367"/>
<path d="M210.188 148.082C212.188 148.082 212.188 148.082 214.812 150.395C217.188 153.082 217.188 153.082 217.188 156.082C217.848 156.412 218.507 156.742 219.188 157.082C218.197 157.082 217.207 157.082 216.188 157.082C214.582 155.367 214.582 155.367 213 153.145C212.47 152.414 211.94 151.683 211.395 150.93C210.188 149.082 210.188 149.082 210.188 148.082Z" fill="#639570"/>
<path d="M407.188 656.082C407.848 656.412 408.507 656.742 409.188 657.082C407.538 659.062 405.888 661.042 404.188 663.082C402.867 662.752 401.548 662.422 400.188 662.082C402.497 660.102 404.807 658.122 407.188 656.082Z" fill="#240302"/>
<path d="M444.188 637.082C444.848 637.412 445.507 637.742 446.188 638.082C445.188 641.082 445.188 641.082 442.812 642.832C440.188 644.082 440.188 644.082 437.188 643.082C439.497 641.102 441.807 639.122 444.188 637.082Z" fill="#FCECE6"/>
<path d="M505.188 554.082C506.188 556.082 506.188 556.082 505.629 558.028C505.339 558.747 505.049 559.466 504.75 560.207C504.463 560.932 504.175 561.656 503.879 562.403C503.537 563.234 503.537 563.234 503.188 564.082C501.867 563.422 500.548 562.762 499.188 562.082C501.168 559.442 503.148 556.802 505.188 554.082Z" fill="#280705"/>
<path d="M187.188 288.082C188.788 292.084 187.48 295.128 186.188 299.082C185.197 299.082 184.207 299.082 183.188 299.082C183.665 297.623 184.144 296.165 184.625 294.707C184.892 293.895 185.159 293.083 185.434 292.246C186.188 290.082 186.188 290.082 187.188 288.082Z" fill="#CA4C52"/>
<path d="M598.188 242.082C598.848 242.412 599.507 242.742 600.188 243.082C600.188 245.392 600.188 247.702 600.188 250.082C599.197 250.082 598.207 250.082 597.188 250.082C596.125 248.207 596.125 248.207 595.188 246.082C595.518 245.422 595.847 244.762 596.188 244.082C596.848 244.082 597.507 244.082 598.188 244.082C598.188 243.422 598.188 242.762 598.188 242.082Z" fill="#619870"/>
<path d="M503.188 148.082C503.188 151.736 502.298 153.143 500.188 156.082C498 157.395 498 157.395 496.188 158.082C497.855 154.141 500.415 151.293 503.188 148.082Z" fill="#061809"/>
<path d="M339.188 146.082C341.662 147.072 341.662 147.072 344.188 148.082C344.188 148.742 344.188 149.402 344.188 150.082C344.848 150.082 345.507 150.082 346.188 150.082C346.518 151.072 346.847 152.062 347.188 153.082C346.197 153.082 345.207 153.082 344.188 153.082C339.188 147.617 339.188 147.617 339.188 146.082Z" fill="#6CA57C"/>
<path d="M317.188 539.082C319.168 539.082 321.148 539.082 323.188 539.082C319.777 541.947 316.281 543.429 312.188 545.082C312.518 544.092 312.847 543.102 313.188 542.082C315.25 541.395 315.25 541.395 317.188 541.082C317.188 540.422 317.188 539.762 317.188 539.082Z" fill="#A72121"/>
<path d="M548.188 386.082C548.875 387.77 548.875 387.77 549.188 390.082C546.926 394.713 546.926 394.713 544.188 396.082C544.518 394.432 544.847 392.782 545.188 391.082C545.848 391.082 546.507 391.082 547.188 391.082C547.518 389.432 547.847 387.782 548.188 386.082Z" fill="#CA3838"/>
<path d="M215.188 261.082C215.188 262.072 215.188 263.062 215.188 264.082C211.87 265.504 208.745 266.472 205.188 267.082C212.588 261.082 212.588 261.082 215.188 261.082Z" fill="#C54E53"/>
<path d="M514.188 254.082C520.834 255.559 520.834 255.559 522.625 258.207C522.903 259.135 522.903 259.135 523.188 260.082C519.251 258.77 516.96 257.163 514.188 254.082Z" fill="#250302"/>
<path d="M478.188 235.082C482.342 236.31 484.624 237.41 488.188 240.082C484.888 239.422 481.588 238.762 478.188 238.082C478.188 237.092 478.188 236.102 478.188 235.082Z" fill="#DA565B"/>
<path d="M227.188 200.082C230.487 200.412 233.787 200.742 237.188 201.082C233.283 203.034 230.465 203.589 226.188 204.082C226.518 202.762 226.847 201.442 227.188 200.082Z" fill="#1A0101"/>
<path d="M220.188 669.082C220.848 669.082 221.507 669.082 222.188 669.082C223.512 670.508 223.512 670.508 224.875 672.395C225.333 673.01 225.79 673.625 226.262 674.258C226.72 675.161 226.72 675.161 227.188 676.082C226.857 677.072 226.528 678.062 226.188 679.082C225.182 677.795 224.183 676.502 223.188 675.207C222.631 674.488 222.074 673.769 221.5 673.028C220.188 671.082 220.188 671.082 220.188 669.082Z" fill="#CF5A5D"/>
<path d="M498.188 563.082C498.518 563.742 498.847 564.402 499.188 565.082C498.253 567.114 497.255 569.118 496.188 571.082C495.197 571.082 494.207 571.082 493.188 571.082C494.559 568.128 496.176 565.642 498.188 563.082Z" fill="#250303"/>
<path d="M492.188 521.082C493.188 524.082 493.188 524.082 491.75 527.27C490.977 528.662 490.977 528.662 490.188 530.082C489.527 530.082 488.868 530.082 488.188 530.082C488.718 526.261 489.685 524.021 492.188 521.082Z" fill="#A4201D"/>
<path d="M489.188 505.082C492.705 508.599 492.734 510.278 493.188 515.082C492.527 515.082 491.868 515.082 491.188 515.082C490.527 511.782 489.868 508.482 489.188 505.082Z" fill="#A21C1D"/>
<path d="M135.188 277.082C135.518 279.392 135.847 281.702 136.188 284.082C135.321 283.154 135.321 283.154 134.438 282.207C132.385 280.269 130.754 279.182 128.188 278.082C132.938 277.082 132.938 277.082 135.188 277.082Z" fill="#C65151"/>
<path d="M513.188 254.082C514.523 254.89 515.856 255.704 517.188 256.52C518.301 257.198 518.301 257.198 519.438 257.891C520.015 258.284 520.592 258.677 521.188 259.082C521.188 259.412 521.188 259.742 521.188 260.082C519.207 260.082 517.227 260.082 515.188 260.082C514.527 258.102 513.868 256.122 513.188 254.082Z" fill="#C04140"/>
<path d="M240.188 238.082C242.188 240.082 242.188 240.082 242.438 243.582C242.188 247.082 242.188 247.082 240.188 249.082C238.813 245.265 239.508 242.01 240.188 238.082Z" fill="#FACFCB"/>
<path d="M537.188 73.0823C537.848 73.0823 538.507 73.0823 539.188 73.0823C538.527 76.3823 537.868 79.6823 537.188 83.0823C536.527 82.0923 535.868 81.1023 535.188 80.0823C536.062 76.3948 536.062 76.3948 537.188 73.0823Z" fill="#75A27F"/>
<path d="M342.188 697.082C344.168 697.082 346.148 697.082 348.188 697.082C345.835 699.807 343.563 700.896 340.188 702.082C340.188 701.422 340.188 700.762 340.188 700.082C340.848 700.082 341.507 700.082 342.188 700.082C342.188 699.092 342.188 698.102 342.188 697.082Z" fill="#BC3F43"/>
<path d="M359.188 692.082C358.857 693.402 358.528 694.722 358.188 696.082C356.538 696.412 354.888 696.742 353.188 697.082C352.857 696.422 352.528 695.762 352.188 695.082C356.938 692.082 356.938 692.082 359.188 692.082Z" fill="#280406"/>
<path d="M348.188 693.082C350.497 693.082 352.807 693.082 355.188 693.082C353.013 695.583 351.457 696.519 348.188 697.082C348.188 695.762 348.188 694.442 348.188 693.082Z" fill="#C73F44"/>
<path d="M226.188 675.082C226.848 675.082 227.507 675.082 228.188 675.082C229.733 677.401 230.984 679.589 232.188 682.082C230.312 681.957 230.312 681.957 228.188 681.082C226.938 678.02 226.938 678.02 226.188 675.082Z" fill="#F15A60"/>
<path d="M431.188 646.082C432.178 646.412 433.168 646.742 434.188 647.082C431.217 649.557 431.217 649.557 428.188 652.082C427.857 650.762 427.528 649.442 427.188 648.082C427.848 647.752 428.507 647.422 429.188 647.082C429.848 647.412 430.507 647.742 431.188 648.082C431.188 647.422 431.188 646.762 431.188 646.082Z" fill="#C85051"/>
<path d="M387.188 616.082C389.375 616.395 389.375 616.395 391.188 617.082C391.188 618.072 391.188 619.062 391.188 620.082C388.878 619.752 386.568 619.422 384.188 619.082C385.438 617.52 385.438 617.52 387.188 616.082Z" fill="#CA3839"/>
<path d="M473.188 588.082C474.178 588.412 475.168 588.742 476.188 589.082C474.538 591.392 472.888 593.702 471.188 596.082C470.527 594.762 469.868 593.442 469.188 592.082C470.178 591.752 471.168 591.422 472.188 591.082C472.518 590.092 472.847 589.102 473.188 588.082Z" fill="#C93F46"/>
<path d="M154.188 524.082C156.484 527.527 156.728 530.02 157.188 534.082C156.198 533.422 155.208 532.762 154.188 532.082C153.779 529.37 154.054 526.839 154.188 524.082Z" fill="#340C0C"/>
<path d="M385.188 478.082C387.828 478.082 390.467 478.082 393.188 478.082C392 479.645 392 479.645 390.188 481.082C387.5 480.77 387.5 480.77 385.188 480.082C385.188 479.422 385.188 478.762 385.188 478.082Z" fill="#A01C1A"/>
<path d="M597.188 251.082C596.857 252.072 596.528 253.062 596.188 254.082C593.547 254.412 590.908 254.742 588.188 255.082C589.188 253.082 589.188 253.082 592.125 251.957C595.188 251.082 595.188 251.082 597.188 251.082Z" fill="#E5F7E8"/>
<path d="M178.188 227.082C178.518 227.742 178.847 228.402 179.188 229.082C176.783 232.689 175.241 232.937 171.188 234.082C173.521 231.749 175.854 229.416 178.188 227.082Z" fill="#D9595A"/>
<path d="M507.188 139.082C508.178 139.412 509.168 139.742 510.188 140.082C508.572 142.123 506.902 144.123 505.188 146.082C504.527 146.082 503.868 146.082 503.188 146.082C503.518 144.762 503.847 143.442 504.188 142.082C505.178 142.082 506.168 142.082 507.188 142.082C507.188 141.092 507.188 140.102 507.188 139.082Z" fill="#679A73"/>
<path d="M476.188 589.082C476.812 590.957 476.812 590.957 477.188 593.082C476.527 593.742 475.868 594.402 475.188 595.082C474.197 595.082 473.207 595.082 472.188 595.082C473.339 592.614 474.235 591.034 476.188 589.082Z" fill="#300709"/>
<path d="M530.188 516.082C530.938 517.832 530.938 517.832 531.188 520.082C529.25 522.332 529.25 522.332 527.188 524.082C527.188 522.102 527.188 520.122 527.188 518.082C527.848 518.082 528.507 518.082 529.188 518.082C529.518 517.422 529.847 516.762 530.188 516.082Z" fill="#CB4244"/>
<path d="M482.188 239.082C484.527 239.37 486.861 239.702 489.188 240.082C489.188 240.742 489.188 241.402 489.188 242.082C486.312 242.207 486.312 242.207 483.188 242.082C482.527 241.422 481.868 240.762 481.188 240.082C481.518 239.752 481.847 239.422 482.188 239.082Z" fill="#FA565B"/>
<path d="M187.188 221.082C187.848 221.412 188.507 221.742 189.188 222.082C186.353 225.336 184.501 226.603 180.188 227.082C182.445 224.747 184.468 222.895 187.188 221.082Z" fill="#E25B60"/>
<path d="M486.188 196.082C485.857 197.072 485.528 198.062 485.188 199.082C482.878 199.082 480.568 199.082 478.188 199.082C479.188 197.082 479.188 197.082 481.062 196.457C483.188 196.082 483.188 196.082 486.188 196.082Z" fill="#6FA87D"/>
<path d="M327.188 164.082C328.178 165.072 329.168 166.062 330.188 167.082C329.197 167.082 328.207 167.082 327.188 167.082C326.857 168.072 326.528 169.062 326.188 170.082C325.197 168.762 324.207 167.442 323.188 166.082C324.508 165.422 325.827 164.762 327.188 164.082Z" fill="#0A140C"/>
<path d="M533.188 114.082C533.848 114.082 534.507 114.082 535.188 114.082C534.64 117.457 534.133 119.165 532.188 122.082C531.527 121.092 530.868 120.102 530.188 119.082C531.562 116.582 531.562 116.582 533.188 114.082Z" fill="#77A584"/>
</svg>
